<?xml version="1.0" encoding="UTF-8"?>
<svg version="1.1" xmlns="http://www.w3.org/2000/svg" width="2160" height="2700">
<path d="M0 0 C712.8 0 1425.6 0 2160 0 C2160 891 2160 1782 2160 2700 C1447.2 2700 734.4 2700 0 2700 C0 1809 0 918 0 0 Z " fill="#FEFEFE" transform="translate(0,0)"/>
<path d="M0 0 C1.35328762 0.97282598 2.69084721 1.96854629 4 3 C5.56095665 3.69818299 7.14680366 4.34268352 8.75 4.9375 C11.92497227 6.15828612 14.98004328 7.43477853 18 9 C23.53329799 11.83843829 29.32942181 13.99022914 35.140625 16.1875 C44.64120858 19.789617 53.72489589 23.71032534 62.625 28.625 C66.85936908 30.93826611 70.82907252 32.76044991 75.4375 34.1328125 C79.71500557 35.58038298 83.7971712 37.47877967 87.9206543 39.3125 C91.96397497 41.11016084 96.02197668 42.84121413 100.125 44.5 C104.51044716 46.30402698 108.71599777 48.34037813 112.9375 50.5 C118.50381477 53.33532241 124.10989 55.64979534 129.96484375 57.8125 C133.69115672 59.27041396 137.18949567 61.04270146 140.73828125 62.8828125 C142.80245431 63.9024213 144.83294756 64.73006919 147 65.5 C149.90263372 66.53624596 152.57788526 67.76587818 155.3125 69.1875 C161.08268603 72.14887075 167.05246449 74.59569071 173.0480957 77.05737305 C177.53116708 78.91009215 181.89237741 80.8808234 186.19506836 83.12304688 C188.07488722 84.03638508 189.96444384 84.75158999 191.9375 85.4375 C194.88978344 86.49597371 197.48194051 87.79017409 200.1875 89.375 C204.91457927 92.10437447 209.85751045 93.94388661 214.984375 95.7890625 C217.88395105 96.95340003 220.35621584 98.34819597 223 100 C226.22879181 101.44966163 229.4874473 102.79150399 232.765625 104.125 C251.92571761 111.98555081 251.92571761 111.98555081 257 119 C257.70125 119.61875 258.4025 120.2375 259.125 120.875 C263.35140097 125.6649211 264.56021481 131.50073211 264.26953125 137.77734375 C263.3600203 145.27751379 260.3822172 149.26587704 254.5859375 154.05859375 C244.6505698 161.51762358 233.7487388 167.91645778 222 172 C215.35592615 174.47879416 209.05570785 177.40998876 202.73828125 180.62890625 C199.54728803 182.22667889 196.2797206 183.59440546 193 185 C189.97792192 186.5130893 186.96775348 188.04687632 183.96484375 189.59765625 C181 191 181 191 177.81640625 192.05859375 C174.84187687 192.91596593 174.84187687 192.91596593 172 195 C171.05125 195.2475 170.1025 195.495 169.125 195.75 C164.07396227 197.0752185 159.4812047 199.50271166 154.79296875 201.7578125 C152 203 152 203 150 203 C149.67 203.99 149.34 204.98 149 206 C148.34 206.33 147.68 206.66 147 207 C145.51161426 212.66986539 145.85529338 218.62694556 145.8581543 224.44628906 C145.85467987 225.59177719 145.85120544 226.73726532 145.84762573 227.91746521 C145.84028489 230.40065274 145.83493062 232.88384676 145.83133507 235.36704254 C145.82415217 239.30210144 145.80847178 243.23703691 145.78999329 247.17205811 C145.78365671 248.52295298 145.77733108 249.87384791 145.77101612 251.22474289 C145.76785031 251.90107065 145.7646845 252.57739841 145.76142275 253.27422094 C145.71946234 262.4271017 145.68638644 271.57993957 145.67407227 280.73291016 C145.66476544 287.58048857 145.6346071 294.42774487 145.59275246 301.27519989 C145.58046483 303.87936793 145.57531709 306.48358011 145.57755089 309.08777618 C145.57991133 312.73756599 145.55767939 316.38646382 145.5300293 320.03613281 C145.53663071 321.10349167 145.54323212 322.17085052 145.55003357 323.27055359 C145.44223842 331.97152902 143.75450963 339.57822876 137.5 345.9375 C131.49493552 350.14693245 124.55936905 350.41128132 117.47265625 351.265625 C102.1807329 353.1610237 84.24376483 356.90161678 71 365 C68.66666667 365.66666667 66.33333333 366.33333333 64 367 C62.31243867 367.96432076 60.64333504 368.96210419 59 370 C57.84322754 370.45391113 57.84322754 370.45391113 56.66308594 370.91699219 C53.94377775 372.02286413 51.54076351 373.3340119 49.015625 374.828125 C48.07976562 375.38113281 47.14390625 375.93414063 46.1796875 376.50390625 C45.21289062 377.08011719 44.24609375 377.65632813 43.25 378.25 C42.29867188 378.81074219 41.34734375 379.37148437 40.3671875 379.94921875 C34.45182812 383.45791822 28.67761734 387.119097 23 391 C22.42572266 391.39058594 21.85144531 391.78117187 21.25976562 392.18359375 C12.79825005 397.96269496 4.37296979 403.82359676 -3.71875 410.11328125 C-11.67581722 416.2668923 -20.0380049 421.48560629 -28.67871094 426.61816406 C-30.95162587 427.97120345 -33.21471926 429.33948961 -35.4765625 430.7109375 C-42.90949553 435.1874677 -50.29616455 439.28784342 -58.265625 442.74609375 C-61.00914328 443.92755347 -61.00914328 443.92755347 -63.3984375 445.53515625 C-66.63919288 447.3599059 -69.7651354 448.12133113 -73.375 449 C-77.20729678 449.93661021 -80.73869686 450.88636352 -84.359375 452.4609375 C-88.77981302 454.32966344 -93.2259647 455.4734041 -97.875 456.625 C-99.58149785 457.05162446 -101.28727316 457.48115322 -102.9921875 457.9140625 C-103.73839355 458.0992041 -104.48459961 458.2843457 -105.25341797 458.47509766 C-107.01079756 458.85290731 -107.01079756 458.85290731 -108 460 C-110.87767226 460.39268875 -113.73557151 460.72031657 -116.625 461 C-117.9699353 461.13027588 -117.9699353 461.13027588 -119.34204102 461.26318359 C-142.97242016 463.43942413 -167.38100945 464.53241815 -191 462 C-220.241439 458.34625714 -220.241439 458.34625714 -247 468 C-250.20838108 471.07288384 -252.63464004 474.25432389 -255 478 C-255.763125 478.94875 -256.52625 479.8975 -257.3125 480.875 C-263.15802852 491.70005282 -263.66210765 505.5767765 -261.30859375 517.50390625 C-258.37565597 527.11265221 -252.86399219 535.67423925 -245 542 C-241.65666426 543.8376238 -241.65666426 543.8376238 -238 545 C-237.42053401 545.25234801 -236.84106802 545.50469602 -236.24404246 545.76469094 C-228.68041501 548.8056211 -220.88663315 548.42083856 -212.87779236 548.38768005 C-211.2356289 548.39185652 -209.59346833 548.39733575 -207.95131308 548.40399987 C-203.45325127 548.41843293 -198.95537303 548.41421638 -194.45730126 548.40683305 C-189.6002399 548.4020982 -184.74321808 548.41461429 -179.88616943 548.42485046 C-170.3749406 548.44203958 -160.86377784 548.44287795 -151.35253751 548.43763756 C-143.61785167 548.43359359 -135.88318534 548.43504213 -128.14850044 548.44038582 C-126.4962052 548.44150845 -126.4962052 548.44150845 -124.81053026 548.44265376 C-122.57259277 548.44418528 -120.33465527 548.44572363 -118.09671778 548.44726873 C-97.11145764 548.46099506 -76.12623478 548.45555593 -55.14097548 548.44408352 C-35.96290228 548.43415871 -16.78492567 548.44707858 2.39313263 548.47101771 C22.10092113 548.49543196 41.80866468 548.50501038 61.51646799 548.49836498 C72.57441829 548.49487694 83.63229439 548.497077 94.69023323 548.51461601 C104.1073129 548.52936739 113.52426617 548.5299355 122.94134343 548.5125451 C127.74132389 548.50405546 132.54107882 548.50183537 137.34104729 548.51719666 C141.74506214 548.5311155 146.14865982 548.52618897 150.55265098 548.50695742 C152.13610047 548.50321891 153.71958396 548.50605652 155.30300296 548.51656907 C171.26926969 548.61493608 185.23596007 546.29358059 198 536 C198.66386719 535.47792969 199.32773438 534.95585938 200.01171875 534.41796875 C208.60848514 526.78713117 216.25204663 512.33672616 218 501 C218.78722843 482.66220827 216.78156246 469.5200791 207 454 C206.52046875 453.1440625 206.0409375 452.288125 205.546875 451.40625 C203.99910658 448.99861024 202.552099 447.56380069 200.3125 445.8125 C198.42578125 444.33203125 198.42578125 444.33203125 197 443 C197 442.34 197 441.68 197 441 C196.34 440.9175 195.68 440.835 195 440.75 C192.3908953 440.09772382 190.64946126 439.36695507 188.3125 438.125 C178.47139689 433.1222871 166.89441678 430.546517 155.99267578 433.55371094 C147.66493563 436.48264923 138.86860675 440.34027017 134 448 C132.49520718 451.27632149 131.24118366 454.6171661 130 458 C129.67 458.66 129.34 459.32 129 460 C128.08961636 470.4073403 127.63111323 479.79503231 133.8046875 488.73046875 C138.38717055 493.4678756 143.35629908 494.59672359 149.6875 495.5625 C154.20214911 494.79586147 156.99581249 493.50728111 160 490 C161.51000963 486.8983586 162.73062214 483.80595015 163.859375 480.546875 C164.23578125 479.70640625 164.6121875 478.8659375 165 478 C165.99 477.67 166.98 477.34 168 477 C168.33 476.01 168.66 475.02 169 474 C180.90900701 473.43687708 180.90900701 473.43687708 185 477 C188.277102 481.915653 187.65951852 487.26022994 187 493 C185.98696377 495.79808891 184.79043781 498.21749801 183.2890625 500.78125 C181.91815877 503.00720468 181.91815877 503.00720468 180.984375 505.62890625 C177.97732072 512.87208859 168.64552289 515.96971828 162 519 C158.23699626 520.25433458 154.72789091 520.10695422 150.8125 520.0625 C150.06291016 520.05798828 149.31332031 520.05347656 148.54101562 520.04882812 C146.69397617 520.03706354 144.84697787 520.01912865 143 520 C143 519.34 143 518.68 143 518 C141.0509375 518.12375 141.0509375 518.12375 139.0625 518.25 C130.35207194 518.19547463 124.30796821 514.03955364 118.13671875 508.19140625 C105.90970104 495.65144841 103.57867407 482.04455492 103.78125 465.1171875 C104.04387168 456.22416071 105.48507997 448.16939605 111 441 C111.62816164 438.91077663 111.62816164 438.91077663 112 437 C111.39608932 437.06597885 110.79217865 437.1319577 110.16996765 437.19993591 C104.05949034 437.84273551 97.96942828 438.26533995 91.83203125 438.53515625 C90.41278854 438.59989388 90.41278854 438.59989388 88.96487427 438.66593933 C85.91426133 438.80267375 82.86345448 438.93362056 79.8125 439.0625 C78.77263947 439.10669067 77.73277893 439.15088135 76.66140747 439.19641113 C63.4213532 439.75011229 50.18980833 440.20372287 36.9375 440.25 C35.69266846 440.259104 34.44783691 440.26820801 33.1652832 440.27758789 C32.02663818 440.27364014 30.88799316 440.26969238 29.71484375 440.265625 C28.74667725 440.26336914 27.77851074 440.26111328 26.78100586 440.25878906 C23.59425779 439.96224329 20.96220814 439.20162281 18 438 C16.875 436.125 16.875 436.125 17 434 C18.8125 431.75 18.8125 431.75 21 430 C21.66 430 22.32 430 23 430 C23.33 429.01 23.66 428.02 24 427 C33.94991715 419.08779651 45.42366968 414.9982503 58.0390625 414.75390625 C59.42847429 414.72233319 60.81787836 414.69041915 62.20727539 414.65820312 C63.2893779 414.63512085 63.2893779 414.63512085 64.39334106 414.61157227 C75.05195959 414.37719839 85.63419722 414.05949273 96.22216797 412.72851562 C103.50068029 411.8450819 110.78935695 411.63238151 118.11743164 411.51757812 C123.61094234 411.37001245 128.62592866 410.70177772 133.98828125 409.4765625 C143.30427108 407.49452541 152.45248207 407.66926533 161.9375 407.8125 C163.69985819 407.82759341 165.46222907 407.84127347 167.22460938 407.85351562 C171.48339456 407.88610817 175.74155121 407.93762506 180 408 C180 408.66 180 409.32 180 410 C180.92619141 410.16435547 180.92619141 410.16435547 181.87109375 410.33203125 C201.01754133 413.916526 216.39848044 423.8305093 228.3125 439.25 C239.16840533 455.20660097 243.292236 471.8561788 243.4375 491 C243.44773193 492.03817871 243.45796387 493.07635742 243.46850586 494.14599609 C243.40032573 500.08577285 242.61791023 505.0831339 240.69726562 510.70068359 C240.03231064 512.89345182 239.79330359 514.76258142 239.66015625 517.0390625 C239.12877985 522.24315673 236.28045125 526.10799331 233.4375 530.375 C232.89319336 531.21063477 232.34888672 532.04626953 231.78808594 532.90722656 C227.85398475 538.8793364 223.84321446 544.72027265 219 550 C218.46117187 550.59296875 217.92234375 551.1859375 217.3671875 551.796875 C204.63573986 564.24286417 183.74383888 573.10355161 166.03356934 573.13701439 C165.34115003 573.13966622 164.64873073 573.14231804 163.93532902 573.14505023 C161.60986708 573.15272351 159.28445812 573.15330164 156.95898438 573.15390015 C155.27688972 573.15791607 153.59479604 573.16235451 151.91270351 573.1671797 C147.28585524 573.17913658 142.65901739 573.1847916 138.03215671 573.18936086 C133.04353067 573.1953203 128.05491708 573.20692928 123.06629944 573.21765137 C111.01631066 573.24216735 98.96631778 573.25680125 86.91631174 573.26971143 C83.51244868 573.27342392 80.10858602 573.27739711 76.70472336 573.2814641 C55.56380876 573.30670093 34.4228935 573.32875241 13.28196716 573.34119225 C8.38573199 573.3441219 3.48949684 573.34708357 -1.40673828 573.35009766 C-3.23212413 573.35121673 -3.23212413 573.35121673 -5.09438646 573.35235842 C-24.8050028 573.36501032 -44.5155289 573.39823176 -64.22610307 573.43989949 C-84.46597684 573.48233515 -104.70580444 573.50588916 -124.94572258 573.51111281 C-136.30827771 573.51452503 -147.67069181 573.52625817 -159.03320312 573.55921555 C-168.71067716 573.58723955 -178.38798123 573.598205 -188.06549269 573.58702008 C-193.00082321 573.58183954 -197.93579794 573.58468112 -202.87107658 573.60948563 C-207.39542427 573.63203444 -211.91916176 573.63119469 -216.44352055 573.61228175 C-218.07415183 573.60948963 -219.704825 573.6150362 -221.33538914 573.63009469 C-231.46051613 573.71783155 -239.71880771 572.43942654 -249 568 C-249.84659904 567.59948248 -250.69319807 567.19896497 -251.56545162 566.78631055 C-253.39423997 565.89202988 -255.20084467 564.952494 -257 564 C-257 563.34 -257 562.68 -257 562 C-257.7115625 561.77570312 -258.423125 561.55140625 -259.15625 561.3203125 C-272.03531958 555.34074448 -279.24658597 540.03495403 -283.9453125 527.47265625 C-290.35354033 508.77680709 -288.63361028 487.6765401 -280 470 C-273.0701534 457.2009368 -261.25157882 444.4882389 -247.26953125 439.79296875 C-244.96354109 439.0299189 -244.96354109 439.0299189 -242.69921875 437.92578125 C-227.71000113 431.59700048 -209.41699403 434.71735888 -193.75 436.5 C-170.36033976 439.14262234 -145.27197616 440.0328821 -122 436 C-121.19449707 435.86045898 -120.38899414 435.72091797 -119.55908203 435.57714844 C-111.15338485 434.06402657 -102.96286197 432.41669006 -95.12109375 428.9375 C-90.86274107 427.05535517 -86.37355008 425.73445701 -81.9296875 424.359375 C-69.48615085 420.41050359 -58.13359562 414.73640358 -47 408 C-46.21173828 407.52643066 -45.42347656 407.05286133 -44.61132812 406.56494141 C-33.1643664 399.66668668 -22.07545818 392.42169371 -11.23779297 384.60498047 C-7.01616635 381.57716316 -2.75631458 378.60375029 1.5 375.625 C2.31283447 375.05402588 3.12566895 374.48305176 3.96313477 373.89477539 C11.43795332 368.65680644 18.99023658 363.55726807 26.75 358.75 C27.81734375 358.08484375 28.8846875 357.4196875 29.984375 356.734375 C32.63137771 355.21200557 35.16967912 354.11371976 38 353 C39.57990661 352.07064317 41.14224484 351.11089833 42.6875 350.125 C46.87239538 347.56307296 51.02198294 345.66197808 55.609375 343.9453125 C58.60487623 342.76081691 61.39484075 341.29221576 64.2109375 339.734375 C66 339 66 339 70 339 C70 338.34 70 337.68 70 337 C74.07671403 335.66632176 78.16231276 334.36211795 82.25 333.0625 C83.38953125 332.68931641 84.5290625 332.31613281 85.703125 331.93164062 C92.13451151 329.90356135 98.02842394 328.53621193 104.78417969 328.36889648 C109.62230179 327.81390085 114.30174425 326.28134248 119 325 C119.33 289.69 119.66 254.38 120 218 C112.91356224 220.80751662 112.91356224 220.80751662 106 224 C104.68 224 103.36 224 102 224 C101.67 224.99 101.34 225.98 101 227 C98.67520091 227.92991964 96.45681597 228.67948485 94.0625 229.375 C87.67366093 231.36543576 81.89634568 233.81202363 76 237 C68.83711964 240.87050307 62.33537931 243.7298304 54.30078125 245.26171875 C53.54152344 245.50535156 52.78226563 245.74898437 52 246 C51.67 246.99 51.34 247.98 51 249 C48.3828125 250.16796875 48.3828125 250.16796875 45.125 251.1875 C44.05507812 251.53167969 42.98515625 251.87585937 41.8828125 252.23046875 C39 253 39 253 36 253 C35.67 253.99 35.34 254.98 35 256 C33.05859375 256.921875 33.05859375 256.921875 30.4375 257.75 C25.46073906 259.43703761 20.67517956 261.37413342 15.875 263.5 C15.23103271 263.78456055 14.58706543 264.06912109 13.92358398 264.36230469 C11.21884147 265.5616773 8.51607276 266.7638095 5.82568359 267.99511719 C-14.75507892 277.3398475 -31.37153312 279.14700152 -53 272 C-53.66 271.67 -54.32 271.34 -55 271 C-55 270.34 -55 269.68 -55 269 C-55.804375 268.9175 -56.60875 268.835 -57.4375 268.75 C-61.12268045 267.97417254 -64.06117295 266.74360149 -67.45703125 265.16796875 C-70.21749363 263.90010661 -73.00623415 262.72535787 -75.8125 261.5625 C-77.33617187 260.93021484 -77.33617187 260.93021484 -78.890625 260.28515625 C-80.94207141 259.43725943 -82.99414247 258.59087214 -85.046875 257.74609375 C-91.76511126 254.97003498 -98.40250909 252.0519889 -105 249 C-105 248.34 -105 247.68 -105 247 C-105.57105469 246.92523437 -106.14210938 246.85046875 -106.73046875 246.7734375 C-113.12535599 245.73642876 -118.36289993 243.59235655 -124.171875 240.77734375 C-128.73212616 238.60643839 -133.42703972 236.78584926 -138.125 234.9375 C-158.57872491 226.84255018 -158.57872491 226.84255018 -160 224 C-165.84121688 221.09856404 -170.69118892 220.64811191 -177 222 C-178.55777238 223.55777238 -178.12914488 225.05074662 -178.13371277 227.21794128 C-178.13797775 228.12778778 -178.14224274 229.03763428 -178.14663696 229.97505188 C-178.14618378 230.98126083 -178.14573059 231.98746979 -178.14526367 233.02416992 C-178.14862228 234.07781738 -178.1519809 235.13146484 -178.15544128 236.21704102 C-178.16498705 239.72152873 -178.16689646 243.22596882 -178.16796875 246.73046875 C-178.17117973 249.1584729 -178.17454368 251.58647685 -178.17805481 254.01448059 C-178.18405579 259.1148829 -178.18589381 264.21526824 -178.18530273 269.31567383 C-178.18520127 275.85166689 -178.19883338 282.38755093 -178.21607494 288.92351818 C-178.22719632 293.94296264 -178.22922187 298.9623808 -178.22869301 303.98183632 C-178.22987369 306.39117113 -178.23430039 308.80050661 -178.24202538 311.20982933 C-178.2518242 314.58291601 -178.24894707 317.95576693 -178.24291992 321.32885742 C-178.24853943 322.32494522 -178.25415894 323.32103302 -178.25994873 324.3473053 C-178.23731202 329.33363256 -177.88763874 333.30986433 -176 338 C-175.63079809 339.99369031 -175.28674418 341.99279077 -175 344 C-174.34 344 -173.68 344 -173 344 C-171.6559907 345.99284138 -170.32458708 347.99419671 -169 350 C-166.77152212 352.47943955 -166.77152212 352.47943955 -164 355 C-163.45472656 355.58523438 -162.90945313 356.17046875 -162.34765625 356.7734375 C-154.93736042 364.19840718 -145.4532275 367.83686892 -136 372 C-134.78376953 372.55288696 -134.78376953 372.55288696 -133.54296875 373.11694336 C-132.75535156 373.47409424 -131.96773437 373.83124512 -131.15625 374.19921875 C-130.45306641 374.51979248 -129.74988281 374.84036621 -129.02539062 375.1706543 C-126.40009513 376.24564571 -123.76164708 376.89142692 -121 377.51171875 C-118.94150145 378.01428187 -116.99693393 378.66775257 -115 379.375 C-104.29849988 383.01609762 -93.17451572 385.39154698 -82 387 C-81.67 388.32 -81.34 389.64 -81 391 C-91.84400515 398.74904231 -110.96565481 402.07844964 -124 400 C-138.36991726 397.41839149 -151.39740013 393.37924906 -164 386 C-164.98871094 385.44570312 -165.97742188 384.89140625 -166.99609375 384.3203125 C-183.70308702 374.41460585 -195.66446438 359.79222787 -201 341 C-202.57753308 333.83528195 -203.29220295 326.980042 -203.25878906 319.65429688 C-203.2622937 318.68524918 -203.26579834 317.71620148 -203.26940918 316.7177887 C-203.27812843 313.55136707 -203.27241224 310.38517344 -203.265625 307.21875 C-203.26697447 304.99637815 -203.26891734 302.77400659 -203.27142334 300.55163574 C-203.27436133 295.90858125 -203.2701197 291.26560405 -203.26074219 286.62255859 C-203.24934854 280.69491166 -203.25591512 274.7674459 -203.26788712 268.8398056 C-203.27514155 264.25509292 -203.27280136 259.67042263 -203.26763153 255.08570862 C-203.26630494 252.90100584 -203.26790773 250.71629911 -203.27259064 248.53160095 C-203.27771505 245.46953247 -203.2698632 242.40775048 -203.25878906 239.34570312 C-203.26283752 238.45810806 -203.26688599 237.570513 -203.27105713 236.65602112 C-203.19346604 224.97461398 -201.48664671 214.57831176 -193.375 205.8125 C-186.12612039 198.91656209 -177.70365953 195.62300746 -167.796875 195.7109375 C-160.86369821 196.42749488 -154.8845804 199.44778231 -149 203 C-148.05125 203.309375 -147.1025 203.61875 -146.125 203.9375 C-143.10269916 204.96508229 -140.63906186 206.37198846 -137.90625 207.99609375 C-135.16688977 209.43874863 -132.31687883 210.30152809 -129.37109375 211.23046875 C-121.67563082 213.72800779 -114.3741679 217.16449654 -107.078125 220.6328125 C-104.09395636 221.95826811 -101.1130973 223.02133169 -98 224 C-98 224.66 -98 225.32 -98 226 C-96.824375 226.37125 -96.824375 226.37125 -95.625 226.75 C-91.86995918 228.04484166 -88.20843023 229.49924025 -84.52734375 230.98828125 C-82.25717654 231.89704989 -79.97895831 232.77165919 -77.6875 233.625 C-73.1016872 235.3349641 -68.70938657 237.09908464 -64.375 239.375 C-59.95919967 241.60902916 -55.51505165 243.3541 -50.8359375 244.953125 C-48 246 -48 246 -45.1640625 247.359375 C-35.93324255 251.76443117 -26.1653161 252.88110409 -16.25 249.8125 C-14.81910776 249.2428429 -13.4026733 248.63597911 -12 248 C-10.64261719 247.40251953 -10.64261719 247.40251953 -9.2578125 246.79296875 C-7.35454072 245.9393333 -5.45718512 245.0723672 -3.56640625 244.19140625 C-1.49526192 243.22991611 0.58046947 242.31582936 2.6875 241.4375 C5.92621368 240.03202048 9.0060538 238.45495649 12.10546875 236.76953125 C14 236 14 236 18 236 C18 235.34 18 234.68 18 234 C27.1931211 229.13305354 36.81345937 225.197097 47 223 C47 222.34 47 221.68 47 221 C47.79664063 220.67386719 48.59328125 220.34773438 49.4140625 220.01171875 C55.9412755 217.33395674 55.9412755 217.33395674 62.3125 214.3125 C65 213 65 213 68.75 211.9375 C72.05430339 211.26797841 72.05430339 211.26797841 74 209 C75.59975237 208.23635514 77.22945362 207.53419514 78.875 206.875 C79.73867187 206.52179688 80.60234375 206.16859375 81.4921875 205.8046875 C84 205 84 205 88 205 C88 204.34 88 203.68 88 203 C88.51304687 202.8040625 89.02609375 202.608125 89.5546875 202.40625 C93.93231135 200.69647099 98.2539236 198.90026612 102.53125 196.953125 C103.32805176 196.59154297 104.12485352 196.22996094 104.94580078 195.85742188 C106.55126513 195.12552375 108.15388167 194.38734271 109.75341797 193.64257812 C110.50252441 193.30162109 111.25163086 192.96066406 112.0234375 192.609375 C113.02769775 192.1448291 113.02769775 192.1448291 114.05224609 191.67089844 C116 191 116 191 120 191 C120 190.34 120 189.68 120 189 C121.21558594 188.59007812 122.43117188 188.18015625 123.68359375 187.7578125 C125.26836169 187.21392765 126.85298997 186.66963574 128.4375 186.125 C129.23994141 185.85558594 130.04238281 185.58617187 130.86914062 185.30859375 C131.63291016 185.04433594 132.39667969 184.78007813 133.18359375 184.5078125 C133.89056396 184.26691895 134.59753418 184.02602539 135.32592773 183.77783203 C137.20038805 183.11814241 137.20038805 183.11814241 138 181 C141.98449687 179.04534116 144.52274716 178 149 178 C149 177.34 149 176.68 149 176 C162.34581335 170.05784391 162.34581335 170.05784391 168.375 168.4375 C172.51173627 167.29820214 175.63862301 165.51608299 179.1875 163.140625 C183.09682197 160.68044824 186.4340278 160 191 160 C191 159.34 191 158.68 191 158 C192.35544922 157.43732422 192.35544922 157.43732422 193.73828125 156.86328125 C199.30183938 154.47770131 204.73505773 151.81443786 210.1875 149.1875 C211.24775391 148.67896484 212.30800781 148.17042969 213.40039062 147.64648438 C219.82862216 144.55576245 226.20429279 141.38634299 232.5324707 138.0949707 C235 137 235 137 238 137 C237.34837158 133.94991836 237.34837158 133.94991836 235.26977539 132.98144531 C234.53235107 132.68334961 233.79492676 132.38525391 233.03515625 132.078125 C232.21934082 131.73845703 231.40352539 131.39878906 230.56298828 131.04882812 C229.71720215 130.70271484 228.87141602 130.35660156 228 130 C226.4336478 129.31307746 224.86981021 128.62039125 223.30859375 127.921875 C222.51718994 127.56963867 221.72578613 127.21740234 220.91040039 126.85449219 C213.03862939 123.33865726 205.28370371 119.68220641 197.61181641 115.75024414 C192.46500781 113.14787341 187.20645466 111.03875217 181.76953125 109.10546875 C179 108 179 108 176.76171875 106.61328125 C173.51913871 104.71910083 170.20053934 103.42383293 166.70703125 102.06201172 C162.26614641 100.31978147 157.88587904 98.43799776 153.5 96.5625 C152.62730469 96.19318359 151.75460937 95.82386719 150.85546875 95.44335938 C145.54590316 93.17401171 140.37256243 90.72150004 135.22363281 88.10913086 C132.56875995 86.7849008 129.87371948 85.6154224 127.125 84.5 C126.12210938 84.08878906 125.11921875 83.67757813 124.0859375 83.25390625 C122.55839844 82.63322266 122.55839844 82.63322266 121 82 C114.9645241 79.53638763 108.98435646 77.07642629 103.18359375 74.09765625 C100.35567467 72.67610838 97.49435639 71.33590805 94.625 70 C93.09746094 69.2884375 93.09746094 69.2884375 91.5390625 68.5625 C88.00563846 67.00248939 84.44018564 65.56924051 80.85009766 64.14648438 C75.32643081 61.92452622 69.8548016 59.57754115 64.375 57.25 C62.58255859 56.49009766 62.58255859 56.49009766 60.75390625 55.71484375 C57.83555429 54.47746252 54.91759576 53.23916296 52 52 C52 51.34 52 50.68 52 50 C51.21625 49.938125 50.4325 49.87625 49.625 49.8125 C45.65151329 48.92189091 42.69818878 47.40411628 39.11328125 45.52734375 C34.58651986 43.30656119 29.92343775 41.45267678 25.2409668 39.58740234 C21.00162943 37.88296219 16.93482949 35.98892869 12.86572266 33.91235352 C10.30796765 32.66159056 7.68558701 31.68995545 5 30.75 C4.05125 30.41484375 3.1025 30.0796875 2.125 29.734375 C1.42375 29.49203125 0.7225 29.2496875 0 29 C0 28.34 0 27.68 0 27 C-0.67160156 26.89816406 -1.34320312 26.79632812 -2.03515625 26.69140625 C-4.9881304 26.00276801 -7.62997328 24.95641482 -10.41699219 23.77685547 C-23.28929908 18.4294665 -34.04990452 18.7127886 -47 24 C-47.94488281 24.3815625 -48.88976563 24.763125 -49.86328125 25.15625 C-51.56204861 25.84460725 -53.25567367 26.54593622 -54.94140625 27.265625 C-57 28 -57 28 -60 28 C-60.33 28.99 -60.66 29.98 -61 31 C-63.1875 32.02734375 -63.1875 32.02734375 -66 32.9375 C-72.17289269 35.03755627 -78.00249129 37.59012056 -83.8984375 40.36328125 C-84.88070313 40.82089844 -85.86296875 41.27851562 -86.875 41.75 C-87.77992188 42.17796875 -88.68484375 42.6059375 -89.6171875 43.046875 C-92 44 -92 44 -95 44 C-95.33 44.99 -95.66 45.98 -96 47 C-98.15234375 47.73828125 -98.15234375 47.73828125 -100.9375 48.3125 C-106.16842171 49.59491952 -109.97442128 51.63511368 -114.47265625 54.52734375 C-117.90047093 56.52469481 -121.46346516 57.67212067 -125.2109375 58.93359375 C-128.18206078 60.06961147 -130.80447214 61.48148966 -133.5625 63.0625 C-137.85378975 65.5015664 -141.89492642 67.01364705 -146.6484375 68.28125 C-149.72164768 69.22057006 -152.40940146 70.64505717 -155.23828125 72.1484375 C-157.44087367 73.21310523 -159.57925816 73.69740727 -162 74 C-162 74.66 -162 75.32 -162 76 C-165.77274282 78.74381296 -169.55478556 79.74037045 -174 81 C-182.45206529 83.77294465 -190.40012073 86.88289237 -197.91796875 91.6953125 C-200.81542745 93.5109808 -203.82421455 94.74063681 -207 96 C-215.12190468 99.26460774 -215.12190468 99.26460774 -223 103.0625 C-226.07276247 104.64600949 -229.14550951 105.75834836 -232.4375 106.8125 C-243.03311819 110.24128507 -253.59097949 113.94684872 -262.64453125 120.53125 C-267.42645363 123.51301254 -272.86282205 125.28800361 -278.11767578 127.27539062 C-281.98587488 128.76447168 -285.79118727 130.40775528 -289.609375 132.01953125 C-291.38050866 132.74592757 -293.18393022 133.39464341 -295 134 C-295 134.99 -295 135.98 -295 137 C-291.48230639 138.42626486 -287.94381141 139.76966612 -284.375 141.0625 C-283.43398438 141.40410156 -282.49296875 141.74570313 -281.5234375 142.09765625 C-279.68985451 142.75331828 -277.84735686 143.38421438 -276 144 C-276 144.66 -276 145.32 -276 146 C-275.27039063 146.26296875 -274.54078125 146.5259375 -273.7890625 146.796875 C-270.97464238 148.01093858 -268.85276952 149.45825787 -266.375 151.25 C-259.20374328 155.93286982 -251.19642013 158.23580558 -242.98535156 160.44824219 C-241 161 -241 161 -238.4296875 161.9765625 C-234.92132742 162.0104052 -232.97984977 160.28434479 -230.12548828 158.35839844 C-209.90953476 145.43839322 -178.10625888 144.11155761 -154.77124023 141.26806641 C-144.05542214 139.8787723 -133.47329701 137.65689081 -122.87277222 135.58779907 C-109.44805832 132.97030263 -96.02224241 130.61389207 -82.47509766 128.72314453 C-66.25977526 126.6930587 -66.25977526 126.6930587 -52.69921875 118.51953125 C-45.38979119 111.98305465 -35.14457636 109.50475452 -25.57421875 109.75390625 C-17.07625182 110.56630673 -10.75673869 113.97918231 -4 119 C-3.030625 119.639375 -2.06125 120.27875 -1.0625 120.9375 C2.62645953 124.62645953 3.10121454 129.29158517 3.5625 134.3125 C3.37468686 140.42686121 0.18967827 144.75273165 -4 149 C-12.72713777 155.07212121 -19.81861116 156.21449538 -30.1875 156.3125 C-31.19103516 156.34150391 -32.19457031 156.37050781 -33.22851562 156.40039062 C-40.07812905 156.4583249 -45.00187347 155.2984253 -51 152 C-57.56313529 148.71843235 -67.15449843 151.54638415 -74 152.875 C-81.88785383 154.33712943 -89.71444834 155.57434558 -97.71289062 156.22802734 C-102.93588331 156.70693007 -107.82493372 157.93104451 -112.89624023 159.2487793 C-117.78186591 160.43127518 -122.71773624 161.14437747 -127.6875 161.875 C-137.62827232 163.39647768 -147.47815269 165.2081704 -157.32495117 167.24951172 C-163.19804396 168.46320876 -169.07459754 169.52546428 -174.9934082 170.49072266 C-187.49665416 172.60860906 -200.17889979 174.97880588 -212.203125 179.06640625 C-215 180 -215 180 -217.984375 180.71484375 C-230.09765781 183.8686907 -240.60420764 194.40856786 -247 205 C-253.68117958 218.27519876 -256.44186535 232.77789902 -256.625 247.5625 C-256.65932129 249.03420654 -256.65932129 249.03420654 -256.69433594 250.53564453 C-256.72927253 256.09887711 -256.72927253 256.09887711 -253.57421875 260.4609375 C-252.72472656 260.96882813 -251.87523437 261.47671875 -251 262 C-247.59090338 267.76019774 -247.02835551 273.39281744 -248 280 C-249.74622827 285.04465944 -252.04267237 289.56400856 -255 294 C-255.28040673 300.55617643 -253.41434303 307.28208959 -252.1574707 313.68994141 C-251.10974241 319.12950838 -250.39354432 324.56612464 -249.77416992 330.06884766 C-249.23798773 334.62444752 -248.37949671 339.0267039 -247.375 343.5 C-245.70922319 351.50592734 -243.90093513 361.88069791 -247.0859375 369.6484375 C-250.37943079 373.69472926 -253.36276298 376.54550467 -258.65478516 377.45751953 C-261.72316399 377.6371694 -264.73993293 377.63289318 -267.8125 377.5625 C-268.84181641 377.57345703 -269.87113281 377.58441406 -270.93164062 377.59570312 C-278.88759852 377.52021965 -287.23087749 376.21782467 -293.125 370.375 C-296.67667755 363.98198041 -295.36659433 357.98364983 -293.625 351.125 C-293.36976563 350.24070312 -293.11453125 349.35640625 -292.8515625 348.4453125 C-292.11789532 345.47698933 -291.57649701 342.581634 -291.08984375 339.56640625 C-289.91129766 332.27161235 -288.43696828 325.04716083 -286.9375 317.8125 C-286.66590242 316.47853867 -286.39441746 315.1445544 -286.12304688 313.81054688 C-285.86458984 312.55951172 -285.60613281 311.30847656 -285.33984375 310.01953125 C-285.10644287 308.88620361 -284.87304199 307.75287598 -284.63256836 306.58520508 C-284 304 -284 304 -283 303 C-282.53668563 297.12353969 -282.53668563 297.12353969 -285 292 C-285 291.01 -285 290.02 -285 289 C-285.61875 288.95875 -286.2375 288.9175 -286.875 288.875 C-289 288 -289 288 -290.109375 285.4140625 C-291.08710345 281.66610344 -291.33565763 278.37128963 -291.375 274.5 C-291.40335938 273.2315625 -291.43171875 271.963125 -291.4609375 270.65625 C-290.77163273 265.18854439 -288.43694079 262.21222551 -284.27734375 258.703125 C-280.99550953 254.80770599 -281.46435906 251.68146727 -281.5625 246.75 C-281.45054722 238.16619176 -280.24996472 230.26767391 -278.1875 221.9375 C-277.9387915 220.92848633 -277.69008301 219.91947266 -277.43383789 218.87988281 C-274.80329496 208.65288199 -272.09488447 198.81905898 -266.25 189.9375 C-263.04490039 185.35206921 -263.04490039 185.35206921 -262 180 C-268.4178203 176.61170978 -274.89644149 173.59183532 -281.59716797 170.81518555 C-289.15720844 167.67547804 -296.51829622 164.44004857 -303.5625 160.25 C-304.16296143 159.89768311 -304.76342285 159.54536621 -305.38208008 159.18237305 C-309.04076201 156.91949498 -311.46947245 154.455479 -314 151 C-314.53625 150.54625 -315.0725 150.0925 -315.625 149.625 C-320.59085524 143.75626199 -319.57425552 134.14441421 -319 127 C-316.03119216 117.36879709 -307.65705948 112.95023714 -299.25 108.5 C-298.40961182 108.05438721 -297.56922363 107.60877441 -296.70336914 107.1496582 C-290.52835694 104 -290.52835694 104 -286 104 C-286 103.34 -286 102.68 -286 102 C-284.78763672 101.60167969 -284.78763672 101.60167969 -283.55078125 101.1953125 C-282.48214844 100.84210938 -281.41351562 100.48890625 -280.3125 100.125 C-279.25675781 99.77695313 -278.20101562 99.42890625 -277.11328125 99.0703125 C-271.66859739 97.660528 -271.66859739 97.660528 -268 94 C-265.99839693 93.36791482 -263.99624287 92.7375477 -261.9921875 92.11328125 C-258.1961891 90.70093198 -254.66321834 88.90847247 -251.0625 87.0625 C-245.1400655 84.03535647 -239.21927953 81.36733866 -233 79 C-230.99640047 78.1964173 -228.99655867 77.38342006 -227 76.5625 C-225.63875 76.00755859 -225.63875 76.00755859 -224.25 75.44140625 C-221.58096193 74.2576622 -218.99135804 73.0068859 -216.38671875 71.69140625 C-210.59571223 68.76988087 -204.71380827 66.06513928 -198.8125 63.375 C-197.77158203 62.89804688 -196.73066406 62.42109375 -195.65820312 61.9296875 C-182.04771106 55.70774827 -182.04771106 55.70774827 -175.9375 53.4375 C-175.27492188 53.19 -174.61234375 52.9425 -173.9296875 52.6875 C-172.15706824 52.05595953 -170.36033891 51.49319566 -168.5625 50.9375 C-165.85338816 50.27871189 -165.85338816 50.27871189 -165 48 C-162.36711029 46.8215815 -159.74726504 45.73409372 -157.0625 44.6875 C-152.19586311 42.74427387 -147.39986767 40.80403535 -142.75 38.375 C-137.99710662 35.90122444 -133.06713105 34.06782379 -128.05078125 32.19921875 C-125.44885272 31.17643763 -123.02919398 30.05645169 -120.5625 28.75 C-117.2388083 27.11730934 -114.65832368 26.36583237 -111 26 C-111 25.34 -111 24.68 -111 24 C-110.44650879 23.78384033 -109.89301758 23.56768066 -109.32275391 23.3449707 C-96.12417085 18.233166 -96.12417085 18.233166 -83.359375 12.1484375 C-79.4186496 10.23026984 -75.29629777 8.79156919 -71.17578125 7.30859375 C-68.24029965 6.09901646 -65.61195891 4.64580269 -62.88110352 3.03686523 C-59.48719472 1.16614095 -55.90257206 -0.24075454 -52.3125 -1.6875 C-51.19391602 -2.14866211 -51.19391602 -2.14866211 -50.05273438 -2.61914062 C-33.72878003 -9.2739552 -15.83122341 -7.15014596 0 0 Z " fill="#F07E06" transform="translate(1131,1058)"/>
<path d="M0 0 C1.77007714 -0.08114106 3.54122098 -0.13925505 5.3125 -0.1875 C6.29863281 -0.22230469 7.28476563 -0.25710938 8.30078125 -0.29296875 C11 0 11 0 12.85546875 1.51171875 C13.23316406 2.00285156 13.61085938 2.49398438 14 3 C13.20335937 2.91878906 12.40671875 2.83757812 11.5859375 2.75390625 C5.47795758 2.23843866 5.47795758 2.23843866 -0.0625 4.34765625 C-3.13565123 7.84336577 -4.89101593 11.45316532 -6 16 C-6.66 16 -7.32 16 -8 16 C-7.54803755 14.39402675 -7.08817673 12.79027492 -6.625 11.1875 C-6.36976562 10.29417969 -6.11453125 9.40085937 -5.8515625 8.48046875 C-5 6 -5 6 -3 3 C-2.34 3 -1.68 3 -1 3 C-0.67 2.01 -0.34 1.02 0 0 Z " fill="#F29432" transform="translate(1300,1532)"/>
<path d="M0 0 C-1.38188453 3.21043882 -2.92421903 5.04936365 -5.625 7.25 C-6.57246094 8.03117187 -6.57246094 8.03117187 -7.5390625 8.828125 C-8.02117187 9.21484375 -8.50328125 9.6015625 -9 10 C-9 5.69032084 -6.83274712 4.10253255 -4 1 C-2 0 -2 0 0 0 Z " fill="#FBDFC1" transform="translate(1274,1498)"/>
<path d="M0 0 C0 0.66 0 1.32 0 2 C-0.99 2.33 -1.98 2.66 -3 3 C-4.55150626 4.60148169 -4.55150626 4.60148169 -6 6.5 C-8.08135132 9.14505064 -8.69921109 9.89973703 -12 11 C-10.5611898 7.612801 -8.77880501 5.6405896 -6 3.25 C-5.29875 2.63640625 -4.5975 2.0228125 -3.875 1.390625 C-2 0 -2 0 0 0 Z " fill="#F39A3C" transform="translate(946,1259)"/>
<path d="M0 0 C0.66 0.33 1.32 0.66 2 1 C0.88200014 2.33920838 -0.24461897 3.67122556 -1.375 5 C-2.00148438 5.7425 -2.62796875 6.485 -3.2734375 7.25 C-4.12808594 8.11625 -4.12808594 8.11625 -5 9 C-5.66 9 -6.32 9 -7 9 C-7 9.66 -7 10.32 -7 11 C-7.66 10.67 -8.32 10.34 -9 10 C-7.8758824 8.70756532 -6.75067408 7.41607925 -5.625 6.125 C-4.99851562 5.40570312 -4.37203125 4.68640625 -3.7265625 3.9453125 C-2.52573166 2.5923402 -1.2791655 1.2791655 0 0 Z " fill="#F4A049" transform="translate(867,1508)"/>
<path d="M0 0 C0.93045933 2.55144824 1.08564091 3.74006478 0.22265625 6.359375 C-0.16019531 7.14828125 -0.54304688 7.9371875 -0.9375 8.75 C-1.50791016 9.94882813 -1.50791016 9.94882813 -2.08984375 11.171875 C-2.39019531 11.77515625 -2.69054688 12.3784375 -3 13 C-3.66 13 -4.32 13 -5 13 C-4.54803755 11.39402675 -4.08817673 9.79027492 -3.625 8.1875 C-3.36976562 7.29417969 -3.11453125 6.40085937 -2.8515625 5.48046875 C-2 3 -2 3 0 0 Z " fill="#F4A654" transform="translate(1297,1535)"/>
<path d="M0 0 C1.65 0 3.3 0 5 0 C1.71195019 2.91227269 -0.59885603 4.49701212 -5 5 C-4.67 4.34 -4.34 3.68 -4 3 C-3.01 3 -2.02 3 -1 3 C-0.67 2.01 -0.34 1.02 0 0 Z " fill="#F5AB5D" transform="translate(1315,1244)"/>
</svg>
