<?xml version="1.0" encoding="UTF-8"?>
<svg version="1.1" xmlns="http://www.w3.org/2000/svg" width="2160" height="2700">
<path d="M0 0 C712.8 0 1425.6 0 2160 0 C2160 891 2160 1782 2160 2700 C1447.2 2700 734.4 2700 0 2700 C0 1809 0 918 0 0 Z " fill="#FFFEFE" transform="translate(0,0)"/>
<path d="M0 0 C3.83390017 0.01115809 7.66774247 -0.00114289 11.50163813 -0.01030749 C18.20564095 -0.02315491 24.90951127 -0.02129418 31.61351426 -0.0095278 C41.58278512 0.00792124 51.55195262 0.00233091 61.52122897 -0.00769471 C79.32987964 -0.0248545 97.13846859 -0.01936643 114.94711795 -0.00433752 C130.53077109 0.00872854 146.11440284 0.01390746 161.6980613 0.01134432 C162.73287573 0.0111839 163.76769016 0.01102349 164.8338626 0.01085821 C169.03478262 0.01019459 173.23570264 0.00949218 177.43662265 0.00873287 C216.81988491 0.00171356 256.20310954 0.01718464 295.58636222 0.04335633 C330.5587127 0.06647369 365.53102183 0.07185778 400.50337823 0.06162393 C409.46060591 0.05902182 418.4178336 0.05643677 427.37506135 0.05402601 C428.47788137 0.05372856 429.58070139 0.05343112 430.7169402 0.05312465 C459.96127205 0.04550647 489.20560052 0.05192482 518.44993086 0.06272203 C521.59734064 0.06386981 524.74475042 0.06501299 527.8921602 0.06614886 C529.97996383 0.0669041 532.06776746 0.06766975 534.15557109 0.06844586 C549.72895487 0.07409919 565.30232794 0.07277764 580.87571175 0.06821764 C598.58560893 0.06310567 616.29546609 0.06898138 634.0053533 0.08911193 C643.91126756 0.10008282 653.81710312 0.10290578 663.72301975 0.0938234 C670.34581804 0.08859151 676.96854918 0.09433402 683.5913334 0.10887675 C687.36057131 0.11685565 691.12965054 0.12024603 694.89888742 0.11030419 C713.11802255 0.06611921 730.07655879 0.2734228 747.22896416 7.13266886 C748.11350274 7.48111856 748.99804131 7.82956827 749.90938408 8.18857706 C782.2725316 21.30025008 805.17921998 45.39836895 818.82613213 77.28305948 C824.46858003 91.18624641 826.0405237 105.860313 825.98343976 120.75532377 C825.98824947 122.64854214 825.98824947 122.64854214 825.99315636 124.58000735 C826.00169965 128.0546825 825.99798223 131.52924832 825.99210063 135.0039249 C825.98790368 138.79508942 825.99534727 142.58623495 826.00125314 146.37739474 C826.00999171 153.01258384 826.01133561 159.64774208 826.00774987 166.2829355 C826.0024317 176.15002994 826.00854936 186.01709462 826.0168328 195.88418582 C826.03205924 214.53376546 826.03377928 233.18333151 826.03130977 251.83291606 C826.02947593 266.23556652 826.03123864 280.63821254 826.03553422 295.04086244 C826.03613662 297.11130439 826.03673782 299.18174634 826.03733782 301.25218829 C826.03824509 304.37228026 826.03915376 307.49237222 826.04007017 310.61246417 C826.04849765 339.6149462 826.0528368 368.61742656 826.04866345 397.61990965 C826.04850707 398.71285616 826.0483507 399.80580268 826.04818958 400.93186878 C826.04738382 406.47114487 826.04653805 412.01042095 826.04567628 417.54969702 C826.04550519 418.6497822 826.04533411 419.74986738 826.04515783 420.88328848 C826.04481118 423.10792658 826.04446265 425.33256468 826.04411225 427.55720279 C826.03875497 462.17310715 826.0466865 496.78898604 826.0651458 531.40488565 C826.08586885 570.31130354 826.09658797 609.21770564 826.09257032 648.12412936 C826.09217498 652.27376223 826.09181343 656.4233951 826.09147294 660.57302797 C826.09138221 661.59474528 826.09129147 662.61646259 826.09119799 663.66914103 C826.09003281 679.08209824 826.09667429 694.4950395 826.10728486 709.90799272 C826.11934184 727.43972184 826.12089002 744.97141585 826.10849469 762.5031455 C826.1018718 772.30885347 826.10348401 782.11447747 826.1170832 791.92017871 C826.12534226 798.47759282 826.12261126 805.03494418 826.11110794 811.59235321 C826.10486598 815.323504 826.103213 819.05449122 826.11497127 822.78563241 C826.2128824 856.0844565 820.61725896 885.3140731 798.72896416 911.50766886 C797.89751885 912.50282511 797.06607354 913.49798136 796.20943291 914.52329386 C777.11618888 936.6528916 749.58300539 950.56817669 720.72896416 954.50766886 C716.39100598 954.77243645 712.06777738 954.77849716 707.72272046 954.76214445 C706.45022982 954.76535093 705.17773919 954.76855741 703.86668823 954.77186105 C700.34902075 954.78043868 696.83146068 954.77667234 693.31379168 954.77080533 C689.48125184 954.76662096 685.64873111 954.77404493 681.81619598 954.77995783 C675.10373937 954.78870987 668.39131328 954.79003549 661.67885239 954.78645456 C651.6968679 954.78114351 641.71491289 954.78724695 631.7329316 954.79553749 C612.86668406 954.81077615 594.00044993 954.81248267 575.13419752 954.81001447 C560.56413261 954.80818153 545.99407209 954.80994143 531.42400773 954.81423891 C529.3304364 954.81484131 527.23686507 954.81544251 525.14329375 954.81604251 C521.9884327 954.81694977 518.83357165 954.81785844 515.67871061 954.81877486 C486.34650485 954.82720434 457.01430074 954.83154015 427.68209393 954.82736814 C426.57636127 954.82721177 425.4706286 954.82705539 424.33138889 954.82689428 C418.72715997 954.8260885 413.12293105 954.82524273 407.51870214 954.82438097 C406.40569523 954.82420989 405.29268831 954.8240388 404.14595392 954.82386253 C401.89518316 954.82351587 399.64441241 954.82316734 397.39364166 954.82281694 C362.37544167 954.81746032 327.35726687 954.82538851 292.33907158 954.8438505 C252.99027438 954.86457136 213.64149278 954.87529299 174.29268981 954.87127501 C170.09612635 954.87087967 165.89956289 954.87051812 161.70299943 954.87017763 C160.15306527 954.87004153 160.15306527 954.87004153 158.57181931 954.86990268 C142.97993078 954.86873719 127.388058 954.87538142 111.79617341 954.88598955 C94.06049335 954.89804398 76.32484799 954.89959775 58.58916741 954.88719938 C48.66773206 954.88057388 38.74637971 954.88219472 28.82495102 954.8957879 C22.19156635 954.90404193 15.55824374 954.90132245 8.92486409 954.88981263 C5.14944979 954.88356565 1.37419723 954.8819308 -2.40120764 954.89367596 C-20.14815218 954.94516563 -36.9853847 954.8647853 -53.77103584 948.38266886 C-54.5572834 948.08481485 -55.34353095 947.78696085 -56.1536042 947.48008096 C-68.37407386 942.68019236 -79.41574496 936.20450135 -89.27103584 927.50766886 C-90.09990302 926.79868448 -90.92877021 926.08970011 -91.78275459 925.35923136 C-113.81908756 906.12384116 -128.2740997 879.58209281 -132.27103584 850.50766886 C-132.53639299 846.19054 -132.54187591 841.88819268 -132.52551143 837.56389463 C-132.52871791 836.29815749 -132.53192439 835.03242035 -132.53522803 833.72832755 C-132.54380501 830.2296006 -132.5400396 826.73098167 -132.53417231 823.2322532 C-132.52998771 819.42024541 -132.53741204 815.60825681 -132.54332482 811.79625374 C-132.5520766 805.11984662 -132.55340256 798.44347017 -132.54982154 791.76705873 C-132.54451036 781.8386792 -132.55061407 771.91032931 -132.55890448 761.981953 C-132.57414291 743.21699128 -132.57584967 724.45204305 -132.57338145 705.68707643 C-132.57154849 691.19519611 -132.57330845 676.70332021 -132.57760589 662.21144045 C-132.57820829 660.1290827 -132.57880949 658.04672496 -132.57940949 655.96436721 C-132.58031675 652.82640177 -132.58122542 649.68843634 -132.58214184 646.5504709 C-132.59057129 617.37544851 -132.59490716 588.20042778 -132.59073512 559.02540434 C-132.59057875 557.92560311 -132.59042237 556.82580189 -132.59026126 555.69267336 C-132.58945548 550.11851063 -132.58860971 544.54434792 -132.58774796 538.9701852 C-132.58757687 537.86315005 -132.58740578 536.75611489 -132.58722951 535.61553321 C-132.58688285 533.37683882 -132.58653432 531.13814442 -132.58618392 528.89945003 C-132.58082731 494.06922064 -132.58875547 459.23901657 -132.60721748 424.4087919 C-132.62793851 385.27094553 -132.63865994 346.13311485 -132.63464199 306.99526269 C-132.63424665 302.82116716 -132.6338851 298.64707163 -132.63354461 294.47297609 C-132.63345388 293.44521926 -132.63336315 292.41746242 -132.63326967 291.35856144 C-132.63210419 275.85039916 -132.63874827 260.34225273 -132.64935653 244.83409441 C-132.66141117 227.19356857 -132.66296449 209.55307762 -132.65056636 191.91255126 C-132.64394105 182.0444386 -132.64556128 172.17640937 -132.65915488 162.30830339 C-132.66740927 155.71046211 -132.66468896 149.11268322 -132.65317961 142.51484699 C-132.64693299 138.75973321 -132.64529684 135.00478204 -132.65704294 131.24967776 C-132.75266316 98.42680142 -127.00679854 69.25506562 -105.27103584 43.50766886 C-104.02580146 42.01880167 -104.02580146 42.01880167 -102.75541084 40.49985636 C-90.17208477 25.90441052 -73.98088155 14.49969424 -55.95853584 7.69516886 C-55.26155586 7.42929971 -54.56457588 7.16343057 -53.84647529 6.88950479 C-51.34311233 6.00152998 -48.82085675 5.2533929 -46.27103584 4.50766886 C-44.59220988 4.0056579 -44.59220988 4.0056579 -42.87946825 3.4935053 C-28.75724775 -0.35015798 -14.5218885 -0.05929252 0 0 Z " fill="#FE751F" transform="translate(733.2710358370095,872.4923311443999)"/>
<path d="M0 0 C3.07469934 1.44874162 6.18334521 2.55054246 9.3984375 3.65234375 C15.25951437 5.6740645 20.78429239 8.07629962 26.36352539 10.75244141 C30.74719762 12.85111223 35.17740122 14.69166661 39.70703125 16.4453125 C42.20533049 17.48261803 44.41649995 18.85107176 46.7109375 20.27734375 C49.03073131 21.30836322 51.36523665 22.30670892 53.7109375 23.27734375 C57.36884106 24.80701251 60.94711944 26.38279197 64.4609375 28.21484375 C68.63026713 30.3485595 72.95777917 31.85357729 77.390625 33.34765625 C79.7109375 34.27734375 79.7109375 34.27734375 81.7109375 36.27734375 C83.50055895 36.99819116 83.50055895 36.99819116 85.5859375 37.58984375 C94.021795 40.28877565 101.96548663 43.72389379 109.62890625 48.15625 C112.25366102 49.56957949 114.93834132 50.54714667 117.74609375 51.53125 C119.81963517 52.31861861 121.74089867 53.25968237 123.7109375 54.27734375 C126.33638093 55.63108802 128.93119313 56.77837312 131.7109375 57.77734375 C135.17161683 59.02534702 138.38152799 60.56533654 141.65234375 62.2421875 C146.84005715 64.85080999 152.18598005 67.08732887 157.5859375 69.21484375 C162.18635697 71.03211676 166.67697594 73.04588334 171.16796875 75.1171875 C173.29363444 76.08696125 175.42785712 77.008215 177.5859375 77.90234375 C180.7109375 79.27734375 180.7109375 79.27734375 183.0234375 80.71484375 C186.24182029 82.58599654 189.56187637 83.82791217 193.02734375 85.171875 C196.56666772 86.6298498 199.92866453 88.37413869 203.33203125 90.12109375 C206.10632652 91.46951969 208.92770679 92.49665612 211.83203125 93.5234375 C213.83242858 94.32609173 215.60756089 95.30448372 217.4609375 96.40234375 C220.041964 97.8913975 221.82305476 98.81528251 224.7109375 99.27734375 C224.7109375 99.93734375 224.7109375 100.59734375 224.7109375 101.27734375 C225.54625 101.64859375 225.54625 101.64859375 226.3984375 102.02734375 C232.70676513 105.43725058 234.79179627 108.79940502 236.98046875 115.53515625 C238.56895815 121.49836244 238.09816052 125.88778693 235.16796875 131.23046875 C226.46960309 143.4501567 210.37473455 150.41395836 196.7109375 155.27734375 C195.43676022 155.8322274 194.1657865 156.3945367 192.8984375 156.96484375 C189.7109375 158.27734375 189.7109375 158.27734375 186.7109375 158.27734375 C186.7109375 158.93734375 186.7109375 159.59734375 186.7109375 160.27734375 C186.0509375 160.27734375 185.3909375 160.27734375 184.7109375 160.27734375 C184.7109375 160.93734375 184.7109375 161.59734375 184.7109375 162.27734375 C183.76863281 162.51710938 182.82632812 162.756875 181.85546875 163.00390625 C176.8496185 164.43558697 172.15745059 166.56152106 167.3984375 168.65234375 C147.6328125 177.27734375 147.6328125 177.27734375 144.7109375 177.27734375 C144.7109375 177.93734375 144.7109375 178.59734375 144.7109375 179.27734375 C143.96328125 179.54289062 143.215625 179.8084375 142.4453125 180.08203125 C140.96804688 180.61183594 140.96804688 180.61183594 139.4609375 181.15234375 C138.48640625 181.50039062 137.511875 181.8484375 136.5078125 182.20703125 C134.1443239 183.11149476 131.95955098 184.12777169 129.7109375 185.27734375 C129.70735497 186.16579703 129.70735497 186.16579703 129.70370007 187.07219887 C129.64452263 201.49492401 129.56895503 215.91749471 129.47522259 230.34003639 C129.43028772 237.31472893 129.39086781 244.28937067 129.36450195 251.26416016 C129.33904435 257.99455906 129.29812421 264.72470138 129.24775124 271.4549675 C129.23105958 274.02336185 129.21955966 276.59179534 129.21332359 279.16023636 C129.20370788 282.75631701 129.17567728 286.35181608 129.14331055 289.94775391 C129.14474564 291.01086792 129.14618073 292.07398193 129.1476593 293.16931152 C129.03693135 301.86185599 126.48359023 306.92742574 120.7109375 313.27734375 C117.27573591 315.56747815 116.11877409 315.46730152 112.0859375 315.52734375 C104.77184928 315.94091523 97.88768425 317.43814216 90.7734375 319.15234375 C89.69562012 319.40918945 88.61780273 319.66603516 87.50732422 319.93066406 C81.96735332 321.30207209 76.8895416 322.88876279 71.7109375 325.27734375 C70.23931387 325.77919892 68.76091456 326.26213334 67.2734375 326.71484375 C63.59252394 327.90848465 60.23975949 329.39530536 56.828125 331.21484375 C54.7109375 332.27734375 54.7109375 332.27734375 51.6328125 333.51953125 C46.53115758 335.68485517 41.83925813 338.57081241 37.0859375 341.40234375 C36.10898926 341.98201904 35.13204102 342.56169434 34.12548828 343.15893555 C27.76822034 346.96349645 21.61407415 350.92519919 15.5859375 355.234375 C12.63462337 357.3315724 9.62241837 359.30595502 6.5859375 361.27734375 C2.56971019 363.93195917 -1.16254298 366.74734653 -4.8515625 369.83984375 C-10.05713445 374.18400864 -15.48619263 377.78508484 -21.2890625 381.27734375 C-22.4909292 382.00643824 -23.6927497 382.73560891 -24.89453125 383.46484375 C-28.08354064 385.39423542 -31.28604852 387.300087 -34.49169922 389.20166016 C-36.13286113 390.18386056 -37.76056875 391.18845291 -39.38671875 392.1953125 C-47.02292988 396.85103745 -54.93034618 400.18964676 -63.2890625 403.27734375 C-64.26262695 403.64182617 -65.23619141 404.00630859 -66.23925781 404.38183594 C-69.52272969 405.60802462 -72.81112173 406.81998859 -76.1015625 408.02734375 C-77.15110107 408.41647949 -78.20063965 408.80561523 -79.28198242 409.20654297 C-85.57402175 411.4830747 -91.69488279 413.16649874 -98.2890625 414.27734375 C-99.01649658 414.41382324 -99.74393066 414.55030273 -100.4934082 414.69091797 C-113.39940719 417.10339087 -126.17560854 418.01642276 -139.2890625 418.27734375 C-140.30339355 418.29925781 -141.31772461 418.32117187 -142.36279297 418.34375 C-153.22026176 418.54628323 -163.9265785 418.47341286 -174.7265625 417.27734375 C-182.76855626 416.40612776 -190.76236515 415.9643018 -198.8515625 415.83984375 C-199.90980225 415.80568359 -200.96804199 415.77152344 -202.05834961 415.73632812 C-211.32842138 415.68392605 -218.82442027 418.41323364 -226.6015625 423.40234375 C-237.4806575 435.04044538 -240.22102649 446.07529837 -239.84375 461.4921875 C-239.21672183 471.26841609 -234.75828184 479.00247814 -228.2890625 486.27734375 C-225.72376866 488.27078813 -225.72376866 488.27078813 -222.9140625 489.96484375 C-221.54121094 490.83689453 -221.54121094 490.83689453 -220.140625 491.7265625 C-215.06693306 494.48581688 -210.66572052 495.52715081 -204.905159 495.53740597 C-203.6338905 495.54447156 -202.362622 495.55153715 -201.05283022 495.55881685 C-199.64951833 495.55656568 -198.24620675 495.5541192 -196.84289551 495.55149841 C-195.34626482 495.55595234 -193.84963649 495.5612669 -192.35301161 495.56736714 C-188.24340522 495.58153956 -184.13387449 495.58321057 -180.02424717 495.58277023 C-175.59048971 495.58441915 -171.15676335 495.59748726 -166.72302246 495.60896301 C-157.02853249 495.63180838 -147.33406441 495.63973344 -137.63955116 495.64478946 C-131.58326009 495.64804766 -125.52697535 495.65457097 -119.47068787 495.66179085 C-102.69463557 495.68135783 -85.91858917 495.69776091 -69.14252472 495.70066738 C-67.53230787 495.70094874 -67.53230787 495.70094874 -65.88956138 495.70123577 C-63.71344471 495.70160202 -61.53732804 495.70196572 -59.36121136 495.70232689 C-57.7409176 495.7026011 -57.7409176 495.7026011 -56.08789062 495.70288086 C-54.46561299 495.70315168 -54.46561299 495.70315168 -52.81056207 495.70342798 C-35.29605948 495.70696768 -17.78168 495.73397692 -0.26722008 495.77137875 C17.7251015 495.80949268 35.71736206 495.82882509 53.7097249 495.82912689 C63.8074756 495.82971084 73.90507952 495.83816232 84.00279236 495.86712456 C92.60352026 495.89167995 101.20404789 495.89889344 109.8048014 495.88387703 C114.18940101 495.87672458 118.57360549 495.8774932 122.9581604 495.90028763 C126.98047356 495.92099748 131.00209083 495.91816664 135.02439743 495.89741278 C136.47130004 495.89394061 137.91825411 495.8987304 139.36508936 495.91311722 C149.59980105 496.00824157 157.33073666 494.27732541 166.7109375 490.27734375 C167.68003917 489.8679726 168.64914084 489.45860145 169.64760923 489.03682512 C180.61150722 484.2166807 187.28106927 475.23288477 191.93359375 464.44140625 C197.83370611 449.00383626 196.88817532 432.13527582 190.8984375 416.80859375 C185.62153089 405.56045071 175.62762473 398.10536982 164.4453125 393.3046875 C154.99344023 389.94019654 143.55536069 389.76823879 134.05859375 393.09765625 C127.06248777 396.6131704 119.54903859 402.45144126 116.69921875 409.93359375 C114.93127919 417.37324694 114.06813823 424.64063841 113.7109375 432.27734375 C114.3709375 432.27734375 115.0309375 432.27734375 115.7109375 432.27734375 C115.93007812 432.86902344 116.14921875 433.46070313 116.375 434.0703125 C118.63375013 439.698824 120.68026081 442.85220217 125.7109375 446.27734375 C130.0545496 447.72521445 134.18383273 448.07284139 138.7109375 447.27734375 C141.02201705 445.49877101 142.08420015 443.76828532 143.7109375 441.27734375 C144.3709375 440.94734375 145.0309375 440.61734375 145.7109375 440.27734375 C145.8140625 439.20484375 145.9171875 438.13234375 146.0234375 437.02734375 C146.7109375 433.27734375 146.7109375 433.27734375 148.6484375 430.33984375 C152.97222013 427.42790851 156.63911324 427.3612507 161.7109375 428.27734375 C165.26773922 430.38238966 166.40562686 431.36141183 167.7109375 435.27734375 C168.38460512 444.87710727 166.00821838 452.79745799 159.80859375 460.234375 C156.23998933 463.70994317 152.1640917 466.09372312 147.7109375 468.27734375 C146.94394531 468.65375 146.17695312 469.03015625 145.38671875 469.41796875 C135.27608083 472.66518093 123.25293183 470.47357527 113.9765625 465.94140625 C103.61175942 460.07183544 96.89117226 450.96691208 93.3515625 439.65625 C90.0991784 427.5787993 91.96765054 416.23023694 94.7109375 404.27734375 C95.3709375 404.27734375 96.0309375 404.27734375 96.7109375 404.27734375 C96.8346875 403.55546875 96.9584375 402.83359375 97.0859375 402.08984375 C97.70206939 399.31725026 98.62824779 396.89604446 99.7109375 394.27734375 C99.05649658 394.33269287 98.40205566 394.38804199 97.7277832 394.44506836 C82.64073859 395.69097795 67.59179858 396.51106325 52.4609375 396.90234375 C51.3104039 396.93290359 51.3104039 396.93290359 50.1366272 396.96408081 C45.71610085 397.07869297 41.29573505 397.1723203 36.87426758 397.24182129 C35.40984967 397.26586742 33.94548788 397.29356126 32.48120117 397.32458496 C30.31300774 397.36894789 28.14503785 397.39913957 25.9765625 397.42578125 C24.72133789 397.44560059 23.46611328 397.46541992 22.17285156 397.48583984 C18.67798467 397.27535914 15.96064512 396.54194996 12.7109375 395.27734375 C12.7109375 393.95734375 12.7109375 392.63734375 12.7109375 391.27734375 C14.80814786 389.41886483 16.77944713 387.89436561 19.0859375 386.33984375 C19.71991455 385.900354 20.3538916 385.46086426 21.00708008 385.00805664 C28.87985779 379.64924177 36.39573184 375.344238 46.03295898 374.84423828 C47.34380966 374.77391388 48.65466034 374.70358948 50.00523376 374.63113403 C50.70839155 374.59529331 51.41154934 374.55945259 52.13601494 374.52252579 C54.36632899 374.40840124 56.59626389 374.28847073 58.82618713 374.16696167 C65.16909343 373.82229097 71.51247795 373.48699271 77.85620117 373.15771484 C82.49440252 372.91610587 87.13215414 372.66710537 91.76953125 372.41015625 C92.91200758 372.34685843 92.91200758 372.34685843 94.07756424 372.28228188 C105.67072075 371.62765193 117.18168516 370.63854565 128.71495056 369.27456665 C151.22556662 366.61391335 172.0156149 368.17716779 190.7109375 382.27734375 C203.94996957 392.83557493 213.30613139 406.53704707 216.7109375 423.27734375 C217.04996094 424.44265625 217.38898438 425.60796875 217.73828125 426.80859375 C219.0424881 432.00925329 219.05158312 437.12729155 219.0234375 442.46484375 C219.02150391 443.9809021 219.02150391 443.9809021 219.01953125 445.52758789 C218.92196026 453.13751565 218.0573219 460.0007588 215.7109375 467.27734375 C215.0509375 467.27734375 214.3909375 467.27734375 213.7109375 467.27734375 C213.60072266 468.77007813 213.60072266 468.77007813 213.48828125 470.29296875 C212.8254243 474.86518824 210.76265893 478.20146494 208.2734375 482.02734375 C207.82315186 482.72545166 207.37286621 483.42355957 206.90893555 484.14282227 C197.25499223 498.76924449 185.05724057 508.10833665 168.7109375 514.27734375 C167.97617188 514.56222656 167.24140625 514.84710937 166.484375 515.140625 C156.57967997 518.73150241 146.39964473 518.42661561 135.98666382 518.42451477 C134.49640801 518.42781907 133.0061531 518.43154582 131.5158993 518.43565625 C127.43782155 518.44561947 123.35975852 518.44938381 119.28167033 518.45204556 C114.8765862 518.45596538 110.47151353 518.46554224 106.06643677 518.47425842 C95.43895617 518.493972 84.8114747 518.50408096 74.18398041 518.51298621 C69.1730642 518.51737608 64.16214905 518.52274094 59.15123367 518.52797508 C42.48486488 518.54497959 25.81849672 518.55947366 9.15212059 518.56672382 C4.83237075 518.56863354 0.51262091 518.5705539 -3.80712891 518.57250977 C-4.88070728 518.57299351 -5.95428566 518.57347725 -7.06039672 518.57397565 C-24.45114669 518.58227582 -41.84182789 518.60761604 -59.23254783 518.64009044 C-77.10631271 518.67319365 -94.98004264 518.69117539 -112.85383832 518.69436806 C-122.88169399 518.69652975 -132.90944923 518.70522886 -142.93727493 518.73082924 C-151.47675839 518.75258053 -160.01611701 518.76056477 -168.55562504 518.75086246 C-172.90791619 518.74633106 -177.25994998 518.74813619 -181.61220551 518.7676239 C-185.60598998 518.78535126 -189.59933117 518.78418126 -193.59312098 518.76872661 C-195.02851183 518.766365 -196.46393417 518.7705979 -197.89927717 518.78255526 C-215.90688507 518.92313167 -230.45454998 514.73028356 -243.46484375 502.1171875 C-249.69049615 495.91619929 -253.86332956 489.54656422 -257.6640625 481.65234375 C-258.01049805 480.93546387 -258.35693359 480.21858398 -258.71386719 479.47998047 C-264.90045184 466.03020891 -264.21056388 447.11458905 -259.484375 433.25 C-252.781737 416.58102118 -241.82432616 403.84354924 -225.2890625 396.27734375 C-224.43441406 395.86355469 -223.57976562 395.44976563 -222.69921875 395.0234375 C-208.84219194 389.31760293 -192.47601047 392.02855932 -178.0390625 393.77734375 C-148.21848161 397.33383167 -116.91354332 397.27108815 -88.40722656 387.03271484 C-83.85885038 385.41069134 -79.26365926 383.91982449 -74.671875 382.42578125 C-50.55296815 374.16359517 -29.87502218 359.66786062 -9.27954102 345.00439453 C3.40263329 335.99169762 16.20030301 327.01503209 29.7109375 319.27734375 C30.52175781 318.79394531 31.33257813 318.31054688 32.16796875 317.8125 C32.96589844 317.34714844 33.76382812 316.88179687 34.5859375 316.40234375 C35.28460937 315.99242187 35.98328125 315.5825 36.703125 315.16015625 C38.7109375 314.27734375 38.7109375 314.27734375 42.7109375 314.27734375 C42.7109375 313.61734375 42.7109375 312.95734375 42.7109375 312.27734375 C43.28199219 312.05820313 43.85304688 311.8390625 44.44140625 311.61328125 C49.32525853 309.70322137 54.05889636 307.63773723 58.7734375 305.33984375 C72.93233958 298.78846365 91.03712205 293.27734375 106.7109375 293.27734375 C106.2159375 245.26234375 106.2159375 245.26234375 105.7109375 196.27734375 C95.48840297 199.39165964 95.48840297 199.39165964 90.7109375 203.27734375 C86.9609375 203.96484375 86.9609375 203.96484375 83.7109375 204.27734375 C83.7109375 204.93734375 83.7109375 205.59734375 83.7109375 206.27734375 C82.71126953 206.60605469 82.71126953 206.60605469 81.69140625 206.94140625 C76.55775405 208.7076698 71.81375459 210.65829544 67.0859375 213.33984375 C61.64041442 216.42147931 56.07234109 219.27734375 49.7109375 219.27734375 C49.7109375 219.93734375 49.7109375 220.59734375 49.7109375 221.27734375 C49.06769531 221.48488281 48.42445313 221.69242188 47.76171875 221.90625 C42.28205008 223.77449652 37.27317794 225.95825177 32.2109375 228.77734375 C27.56024546 231.35261014 23.08349413 233.35217369 18.05859375 235.046875 C12.43347996 237.11444892 6.97383479 239.58486349 1.49804688 242.01708984 C-3.71563538 244.29832028 -8.88245315 246.16579233 -14.37084961 247.67944336 C-16.27729637 248.11069249 -16.27729637 248.11069249 -17.2890625 249.27734375 C-30.47941622 250.8042531 -41.51913204 249.31091922 -53.2890625 243.27734375 C-54.0625 242.89835937 -54.8359375 242.519375 -55.6328125 242.12890625 C-56.90099588 241.49984703 -58.16332707 240.85877646 -59.41796875 240.203125 C-62.39636621 238.72947114 -65.48637533 237.55666718 -68.578125 236.34375 C-81.55098017 231.24059516 -81.55098017 231.24059516 -87.2265625 228.27734375 C-91.71003029 225.96088539 -96.41659815 224.27158489 -101.1328125 222.4921875 C-104.43082261 221.22278014 -107.64315684 219.83194009 -110.859375 218.37109375 C-120.24888962 214.1443026 -129.77560191 210.21514978 -139.2890625 206.27734375 C-139.2890625 205.61734375 -139.2890625 204.95734375 -139.2890625 204.27734375 C-140.2790625 204.19484375 -141.2690625 204.11234375 -142.2890625 204.02734375 C-145.36099926 203.61238455 -147.58225849 202.71098737 -150.2890625 201.21484375 C-154.07278116 199.19784197 -156.95780215 198.6709673 -161.2890625 199.27734375 C-163.93831294 203.25121941 -163.59196263 206.71652382 -163.59545898 211.33178711 C-163.60794426 212.72267548 -163.60794426 212.72267548 -163.62068176 214.1416626 C-163.64483447 217.21688003 -163.65356358 220.29188516 -163.66015625 223.3671875 C-163.66912384 225.50891686 -163.67824571 227.65064558 -163.68751526 229.79237366 C-163.70402578 234.29071575 -163.71170821 238.78898328 -163.71459961 243.28735352 C-163.71996267 249.02704424 -163.75754804 254.76602422 -163.80334377 260.5055151 C-163.83323224 264.93502796 -163.84032585 269.36437285 -163.84132576 273.79397774 C-163.84551044 275.90810945 -163.85787365 278.02224248 -163.87884331 280.13627434 C-164.00727157 294.21330154 -163.48149999 305.9203053 -154.203125 317.33984375 C-146.29551111 325.34428556 -136.90054128 330.74018416 -126.2890625 334.27734375 C-126.2890625 334.93734375 -126.2890625 335.59734375 -126.2890625 336.27734375 C-125.3403125 336.35984375 -124.3915625 336.44234375 -123.4140625 336.52734375 C-120.30901228 336.9643708 -117.75679895 337.84671317 -114.88671875 339.09765625 C-108.61476874 341.66355868 -102.16755148 343.2707731 -95.6015625 344.90234375 C-93.24331411 345.49800366 -90.8852359 346.09433776 -88.52734375 346.69140625 C-87.44146973 346.96500977 -86.3555957 347.23861328 -85.23681641 347.52050781 C-81.90006151 348.37721977 -78.59234024 349.30038606 -75.2890625 350.27734375 C-75.2890625 351.26734375 -75.2890625 352.25734375 -75.2890625 353.27734375 C-90.79222125 361.92333613 -110.13458527 362.87910504 -127.2890625 358.77734375 C-149.41486069 351.75761181 -168.93474366 338.71511766 -180.2890625 318.27734375 C-184.33570526 309.8487011 -185.43956478 302.57310709 -185.46606445 293.30566406 C-185.47263565 292.30501923 -185.47920685 291.30437439 -185.48597717 290.27340698 C-185.50566071 286.96742675 -185.51736133 283.66149183 -185.52734375 280.35546875 C-185.53141928 279.22390099 -185.5354948 278.09233322 -185.53969383 276.92647552 C-185.56053272 270.93796472 -185.57484433 264.94947669 -185.58422852 258.9609375 C-185.5952929 252.7862004 -185.62969984 246.61182365 -185.66940022 240.4372139 C-185.69558126 235.67929426 -185.70392166 230.92146036 -185.70750999 226.16347504 C-185.71237145 223.88777989 -185.72397275 221.61208846 -185.74254799 219.33646393 C-185.76697209 216.14622126 -185.76596817 212.95690967 -185.7590332 209.76660156 C-185.77184326 208.83433746 -185.78465332 207.90207336 -185.79785156 206.94155884 C-185.72554652 197.7759636 -182.49063149 190.75621162 -176.28515625 184.0703125 C-169.60994584 178.07437986 -162.51738932 175.95216906 -153.68798828 176.0546875 C-149.61975372 176.43228061 -146.01224287 177.80421309 -142.2265625 179.27734375 C-141.45634766 179.56351563 -140.68613281 179.8496875 -139.89257812 180.14453125 C-138.01983537 180.8424478 -136.15369403 181.55803698 -134.2890625 182.27734375 C-134.2890625 182.93734375 -134.2890625 183.59734375 -134.2890625 184.27734375 C-133.1134375 184.54546875 -131.9378125 184.81359375 -130.7265625 185.08984375 C-127.44959748 185.91337423 -124.42291412 186.96457134 -121.3359375 188.359375 C-118.67535757 189.55257401 -115.98299007 190.66157524 -113.2890625 191.77734375 C-111.28780502 192.6076527 -109.28785355 193.44111484 -107.2890625 194.27734375 C-106.17015625 194.74269531 -105.05125 195.20804688 -103.8984375 195.6875 C-100.02950312 197.39167348 -96.29561713 199.28027304 -92.5390625 201.21484375 C-86.25722311 204.40438674 -79.9764732 207.04100447 -73.2890625 209.27734375 C-71.72405807 209.85392433 -70.16129806 210.43665855 -68.6015625 211.02734375 C-66.961875 211.64609375 -66.961875 211.64609375 -65.2890625 212.27734375 C-65.2890625 212.93734375 -65.2890625 213.59734375 -65.2890625 214.27734375 C-64.41121094 214.46296875 -64.41121094 214.46296875 -63.515625 214.65234375 C-57.94474903 215.99069233 -53.00964939 217.83314514 -47.88818359 220.35229492 C-36.05370454 226.11032621 -25.53246979 227.63520441 -12.6953125 223.32421875 C-9.98525801 222.14516907 -7.36073923 220.82048807 -4.72460938 219.48583984 C0.37066987 216.95760886 5.54774762 214.60033114 10.7109375 212.21484375 C11.84789062 211.68568359 12.98484375 211.15652344 14.15625 210.61132812 C19.9486979 207.93349693 25.72183269 205.47291579 31.7109375 203.27734375 C33.93139142 202.28315001 36.13973173 201.26151324 38.3359375 200.21484375 C39.63759164 199.60065208 40.93970532 198.98743372 42.2421875 198.375 C42.94859375 198.04258301 43.655 197.71016602 44.3828125 197.36767578 C55.69476536 192.06994283 66.97499996 186.81015014 78.69921875 182.48828125 C83.42529893 180.58804149 87.90312932 178.22404561 92.43359375 175.90625 C96.76640487 173.75275508 101.19832961 172.0096719 105.7109375 170.27734375 C112.60244486 167.51096562 119.36313902 164.53378038 126.07763672 161.36279297 C132.85195452 158.18053315 139.68609976 155.13384184 146.5234375 152.08984375 C148.2405896 151.32305298 148.2405896 151.32305298 149.99243164 150.54077148 C155.80290435 147.95969834 161.62684637 145.45509518 167.54760742 143.13720703 C174.05064979 140.55242933 180.28010928 137.52860779 186.44921875 134.23046875 C188.7109375 133.27734375 188.7109375 133.27734375 192.7109375 133.27734375 C192.7109375 132.61734375 192.7109375 131.95734375 192.7109375 131.27734375 C194.8343391 130.43994594 196.9597103 129.60754092 199.0859375 128.77734375 C200.26929688 128.31328125 201.45265625 127.84921875 202.671875 127.37109375 C205.7109375 126.27734375 205.7109375 126.27734375 207.7109375 126.27734375 C207.7109375 125.61734375 207.7109375 124.95734375 207.7109375 124.27734375 C211.1759375 123.28734375 211.1759375 123.28734375 214.7109375 122.27734375 C214.7109375 121.28734375 214.7109375 120.29734375 214.7109375 119.27734375 C213.5146875 118.90609375 212.3184375 118.53484375 211.0859375 118.15234375 C200.9490512 114.75229608 191.39454771 110.17433966 181.89770508 105.31640625 C176.26895469 102.4738907 170.51222399 100.06514937 164.6628418 97.71777344 C159.95048489 95.81815078 155.40667288 93.72467668 150.890625 91.390625 C145.28911554 88.52963899 139.46109831 86.16950529 133.6484375 83.77734375 C130.28465816 82.38777244 126.99785836 80.96438251 123.7734375 79.27734375 C120.42350757 77.54342557 116.9952912 76.21881713 113.4609375 74.90234375 C107.90656989 72.81704235 102.69579007 70.33573693 97.42578125 67.62109375 C95.12336468 66.48148037 92.87524682 65.51829485 90.4609375 64.65234375 C87.74447735 63.65630836 85.38148104 62.65318195 82.8359375 61.33984375 C79.15106363 59.44741822 75.38966668 57.91345351 71.53515625 56.40234375 C62.76758404 52.90986685 54.16948393 49.04817337 45.62109375 45.0546875 C39.36052638 42.17424667 33.00662431 39.49559446 26.66821289 36.79199219 C25.71293701 36.38110352 24.75766113 35.97021484 23.7734375 35.546875 C22.91878906 35.18182861 22.06414062 34.81678223 21.18359375 34.44067383 C18.57560679 33.21367365 16.18001821 31.7606907 13.7109375 30.27734375 C11.13485999 29.24965325 8.56994281 28.27327357 5.9609375 27.33984375 C0.82741942 25.46110297 -4.23508739 23.53277831 -9.19921875 21.234375 C-10.23369141 20.76064453 -10.23369141 20.76064453 -11.2890625 20.27734375 C-12.35382813 19.75785156 -13.41859375 19.23835938 -14.515625 18.703125 C-24.48519413 14.48792818 -36.22581505 16.63497118 -45.9140625 20.52734375 C-50.88169385 22.59122277 -55.69238475 24.93750327 -60.47338867 27.39990234 C-62.89920325 28.57219999 -65.42020017 29.45222923 -67.953125 30.36328125 C-73.17413261 32.40628423 -78.20957028 34.90907095 -83.2890625 37.27734375 C-89.7890625 40.27734375 -89.7890625 40.27734375 -93.2890625 40.27734375 C-93.2890625 40.93734375 -93.2890625 41.59734375 -93.2890625 42.27734375 C-93.99925537 42.55932617 -94.70944824 42.84130859 -95.44116211 43.13183594 C-98.70371007 44.42846579 -101.96514027 45.72788509 -105.2265625 47.02734375 C-106.34353516 47.47078125 -107.46050781 47.91421875 -108.61132812 48.37109375 C-116.07790973 51.34896794 -123.52302829 54.32458527 -130.6640625 58.02734375 C-133.2890625 59.27734375 -133.2890625 59.27734375 -136.2890625 59.27734375 C-136.2890625 59.93734375 -136.2890625 60.59734375 -136.2890625 61.27734375 C-140.7440625 62.26734375 -140.7440625 62.26734375 -145.2890625 63.27734375 C-145.2890625 63.93734375 -145.2890625 64.59734375 -145.2890625 65.27734375 C-150.79096324 67.77579143 -156.33084822 70.12553166 -161.953125 72.33984375 C-163.91714401 73.1280788 -165.85659754 73.97713618 -167.7890625 74.83984375 C-171.55261164 76.38558715 -175.31138567 77.43406625 -179.25 78.43359375 C-179.92289063 78.71203125 -180.59578125 78.99046875 -181.2890625 79.27734375 C-181.7840625 80.76234375 -181.7840625 80.76234375 -182.2890625 82.27734375 C-184.01171875 83.234375 -184.01171875 83.234375 -186.3515625 84.08984375 C-187.23972656 84.42371094 -188.12789062 84.75757813 -189.04296875 85.1015625 C-190.11417969 85.48957031 -191.18539062 85.87757812 -192.2890625 86.27734375 C-194.3991705 87.04778211 -196.50797483 87.82148212 -198.61499023 88.6003418 C-200.05104915 89.13009514 -201.48934788 89.65382039 -202.92993164 90.17114258 C-206.96066137 91.6390017 -206.96066137 91.6390017 -210.2890625 94.27734375 C-212.671875 94.91015625 -212.671875 94.91015625 -215.4140625 95.40234375 C-216.32414063 95.56992188 -217.23421875 95.7375 -218.171875 95.91015625 C-218.87054687 96.03132813 -219.56921875 96.1525 -220.2890625 96.27734375 C-220.2890625 96.93734375 -220.2890625 97.59734375 -220.2890625 98.27734375 C-220.82273437 98.49350342 -221.35640625 98.70966309 -221.90625 98.93237305 C-224.37037632 99.93555596 -226.82966897 100.9501162 -229.2890625 101.96484375 C-230.12824219 102.30451172 -230.96742188 102.64417969 -231.83203125 102.99414062 C-236.69825921 105.01230494 -241.11031768 107.23759412 -245.47558594 110.19482422 C-248.10008937 111.76147045 -250.85891013 112.50996423 -253.76953125 113.38671875 C-258.82943291 115.17533515 -263.54090464 117.79480436 -268.2890625 120.27734375 C-268.2890625 120.93734375 -268.2890625 121.59734375 -268.2890625 122.27734375 C-267.75539063 122.50808594 -267.22171875 122.73882813 -266.671875 122.9765625 C-262.49412872 124.80522999 -258.33948236 126.68196819 -254.2265625 128.65234375 C-253.47246094 129.01070312 -252.71835937 129.3690625 -251.94140625 129.73828125 C-249.61093385 131.09057304 -247.72910318 132.51253844 -245.640625 134.1953125 C-241.0264056 137.71451324 -236.21552179 139.46354839 -230.7265625 141.21484375 C-229.81970703 141.53001953 -228.91285156 141.84519531 -227.97851562 142.16992188 C-222.03250091 144.12318124 -217.34647656 145.12831381 -211.39135742 142.41162109 C-210.04164568 141.72543909 -208.69839068 141.02643275 -207.36132812 140.31591797 C-187.06267465 130.1426767 -161.10432785 128.60999423 -138.96484375 125.70849609 C-133.46121996 124.96869977 -128.11812341 124.04605759 -122.72265625 122.72265625 C-118.55257509 121.71259982 -114.5932286 121.05032729 -110.3125 120.76953125 C-103.67332879 120.33185548 -97.38376825 118.90192036 -90.9140625 117.40234375 C-80.93529656 115.14735334 -71.05733568 113.34252019 -60.86572266 112.39111328 C-60.02315918 112.29942871 -59.1805957 112.20774414 -58.3125 112.11328125 C-57.57950684 112.0467334 -56.84651367 111.98018555 -56.09130859 111.91162109 C-54.09425575 111.42701019 -54.09425575 111.42701019 -53.14648438 109.32495117 C-52.86353516 108.64924072 -52.58058594 107.97353027 -52.2890625 107.27734375 C-43.75534121 99.45157691 -32.47875894 97.60382424 -21.25390625 97.9375 C-13.05715054 98.87704907 -6.00040164 104.57713783 -0.2890625 110.27734375 C0.46484375 112.23828125 0.46484375 112.23828125 0.7109375 114.27734375 C0.824375 115.01210937 0.9378125 115.746875 1.0546875 116.50390625 C1.47546985 122.9629154 -0.07717933 126.95690368 -4.01171875 132.07421875 C-11.16116472 138.99066391 -20.47624736 140.48695225 -29.9765625 140.58984375 C-30.84990234 140.61884766 -31.72324219 140.64785156 -32.62304688 140.67773438 C-40.28160055 140.75208927 -45.02453395 138.45369612 -51.2890625 134.27734375 C-59.2878194 133.92885019 -67.69374482 136.34163399 -75.5390625 137.77539062 C-93.69309979 141.08901817 -111.8493204 144.30940508 -130.109375 146.984375 C-138.39646392 148.21814565 -146.46320069 149.70218236 -154.56079102 151.86254883 C-160.06620174 153.30392742 -165.55646172 154.12794366 -171.203125 154.78515625 C-174.40248887 155.29543454 -177.23216693 156.22094719 -180.2890625 157.27734375 C-181.72146215 157.55508013 -183.15939099 157.80587683 -184.6015625 158.02734375 C-201.47162106 161.3656786 -214.71671156 167.75820472 -224.57421875 182.43359375 C-231.57927856 194.05018497 -232.98903585 205.99683202 -234.2890625 219.27734375 C-234.42957031 220.53289062 -234.57007813 221.7884375 -234.71484375 223.08203125 C-235.07745215 228.67046662 -234.59277792 231.56087662 -230.8515625 235.83984375 C-230.21347656 236.43925781 -229.57539062 237.03867188 -228.91796875 237.65625 C-226.23770532 240.32365845 -226.06505479 243.22183622 -225.9140625 246.83984375 C-225.9397563 252.66377188 -228.06847401 259.05675526 -232.2890625 263.27734375 C-232.96498999 270.89514745 -231.68801143 278.35426439 -230.4140625 285.83984375 C-230.24003906 286.91169922 -230.06601562 287.98355469 -229.88671875 289.08789062 C-228.98061005 294.57488222 -227.9441451 300.00042365 -226.69970703 305.42016602 C-225.3123049 311.69482001 -225.17034912 318.18820304 -224.9765625 324.58984375 C-224.92048828 326.31654297 -224.92048828 326.31654297 -224.86328125 328.078125 C-225.38010301 331.96140044 -226.56410004 333.51795035 -229.2890625 336.27734375 C-237.4509711 341.13975738 -246.95815572 341.36239795 -256.18359375 339.78125 C-261.46724988 338.37914035 -264.79603312 336.67180007 -268.2890625 332.27734375 C-271.1835969 326.48827495 -268.75483515 318.4893433 -267.4765625 312.46484375 C-267.29424072 311.57756592 -267.11191895 310.69028809 -266.92407227 309.77612305 C-265.99536907 305.33536647 -264.9876424 300.94996042 -263.7265625 296.58984375 C-259.10532451 280.60582976 -259.10532451 280.60582976 -259.2890625 264.27734375 C-260.76819978 262.65217533 -260.76819978 262.65217533 -262.2890625 261.27734375 C-262.2890625 260.61734375 -262.2890625 259.95734375 -262.2890625 259.27734375 C-262.9490625 259.27734375 -263.6090625 259.27734375 -264.2890625 259.27734375 C-266.86460083 253.4823825 -266.98986474 247.49910024 -266.2890625 241.27734375 C-264.5950749 237.88936856 -263.1802582 235.96622298 -260.20703125 233.66796875 C-257.44702515 230.22779821 -257.57097087 226.76841246 -257.3515625 222.52734375 C-255.81739053 202.53673052 -252.09217219 183.35759962 -240.7421875 166.5546875 C-239.1479413 164.26017839 -239.1479413 164.26017839 -238.2890625 161.27734375 C-241.5890625 159.95734375 -244.8890625 158.63734375 -248.2890625 157.27734375 C-248.2890625 156.61734375 -248.2890625 155.95734375 -248.2890625 155.27734375 C-249.2790625 155.12458984 -249.2790625 155.12458984 -250.2890625 154.96875 C-263.51704972 151.92011232 -280.46576571 144.66454491 -288.23828125 133.234375 C-291.91895698 126.37928748 -292.0118965 119.95745502 -291.2890625 112.27734375 C-287.53466103 104.04654052 -279.3638157 99.96279253 -271.6640625 95.96484375 C-270.8184375 95.51044922 -269.9728125 95.05605469 -269.1015625 94.58789062 C-268.28429687 94.15927734 -267.46703125 93.73066406 -266.625 93.2890625 C-265.88813965 92.90194092 -265.1512793 92.51481934 -264.39208984 92.1159668 C-262.2890625 91.27734375 -262.2890625 91.27734375 -258.2890625 91.27734375 C-258.2890625 90.61734375 -258.2890625 89.95734375 -258.2890625 89.27734375 C-256.87680324 88.6013906 -255.45903345 87.93694316 -254.0390625 87.27734375 C-253.25015625 86.90609375 -252.46125 86.53484375 -251.6484375 86.15234375 C-249.2890625 85.27734375 -249.2890625 85.27734375 -245.2890625 85.27734375 C-245.2890625 84.61734375 -245.2890625 83.95734375 -245.2890625 83.27734375 C-244.25007812 82.90222656 -243.21109375 82.52710938 -242.140625 82.140625 C-235.18960114 79.6014382 -228.42818428 77.01818326 -221.8671875 73.5703125 C-217.47158214 71.36584981 -212.92212248 69.51340775 -208.390625 67.609375 C-205.40623146 66.38394425 -205.40623146 66.38394425 -203.125 65.1015625 C-201.2890625 64.27734375 -201.2890625 64.27734375 -197.2890625 64.27734375 C-197.2890625 63.61734375 -197.2890625 62.95734375 -197.2890625 62.27734375 C-196.68320312 62.04660156 -196.07734375 61.81585937 -195.453125 61.578125 C-190.06276668 59.48003168 -184.89998884 57.13721258 -179.74609375 54.515625 C-177.31845882 53.29215875 -174.88081564 52.10738244 -172.4140625 50.96484375 C-171.36605469 50.47564453 -171.36605469 50.47564453 -170.296875 49.9765625 C-168.2890625 49.27734375 -168.2890625 49.27734375 -164.2890625 49.27734375 C-164.2890625 48.61734375 -164.2890625 47.95734375 -164.2890625 47.27734375 C-157.7890625 44.27734375 -157.7890625 44.27734375 -153.2890625 44.27734375 C-153.2890625 43.61734375 -153.2890625 42.95734375 -153.2890625 42.27734375 C-151.16476163 41.35905807 -149.03957927 40.44281153 -146.9140625 39.52734375 C-145.73070312 39.016875 -144.54734375 38.50640625 -143.328125 37.98046875 C-140.40590115 36.73447975 -137.46504684 35.54526394 -134.51171875 34.375 C-128.99430239 32.1787367 -123.54496381 29.83778492 -118.1015625 27.46484375 C-117.08400879 27.02180908 -116.06645508 26.57877441 -115.01806641 26.12231445 C-108.52422251 23.2835122 -102.09139391 20.34801605 -95.68359375 17.3203125 C-85.72335142 12.65427505 -75.6450515 8.23555742 -65.59863281 3.75878906 C-62.81990947 2.51496395 -60.04850361 1.25733282 -57.28125 -0.01171875 C-36.58125236 -9.44865836 -20.27630884 -10.52193314 0 0 Z " fill="#FCF9F6" transform="translate(1123.2890625,1086.72265625)"/>
<path d="M0 0 C1.12664062 -0.01417969 2.25328125 -0.02835938 3.4140625 -0.04296875 C6.375 0.1875 6.375 0.1875 9.375 2.1875 C1.36103754 2.8341598 -6.58287245 3.35427223 -14.625 3.1875 C-9.91221029 0.0456402 -5.57860103 0.03206093 0 0 Z " fill="#FCD0B5" transform="translate(1098.625,1184.8125)"/>
<path d="M0 0 C0.66 0.33 1.32 0.66 2 1 C-4.625 5 -4.625 5 -8 5 C-8 5.99 -8 6.98 -8 8 C-9.8125 8.625 -9.8125 8.625 -12 9 C-12.99 8.34 -13.98 7.68 -15 7 C-12.54595776 5.80283341 -10.08748321 4.6170654 -7.625 3.4375 C-6.57699219 2.92413086 -6.57699219 2.92413086 -5.5078125 2.40039062 C-3.69947784 1.53969288 -1.85148044 0.76347564 0 0 Z " fill="#FCD4BC" transform="translate(1141,1296)"/>
<path d="M0 0 C0.33 0.99 0.66 1.98 1 3 C-0.29009643 3.50403768 -1.58213789 4.00309926 -2.875 4.5 C-3.95394531 4.91765625 -3.95394531 4.91765625 -5.0546875 5.34375 C-7 6 -7 6 -9 6 C-8.8125 4.125 -8.8125 4.125 -8 2 C-5.10888212 0.47835901 -3.28176588 0 0 0 Z " fill="#F8EFE8" transform="translate(956,1158)"/>
<path d="M0 0 C2.31 0.33 4.62 0.66 7 1 C6.67 1.66 6.34 2.32 6 3 C3.93359375 3.6328125 3.93359375 3.6328125 1.4375 4.125 C0.61121094 4.29257813 -0.21507812 4.46015625 -1.06640625 4.6328125 C-1.70449219 4.75398438 -2.34257813 4.87515625 -3 5 C-3 5.66 -3 6.32 -3 7 C-3.66 6.67 -4.32 6.34 -5 6 C-5 5.01 -5 4.02 -5 3 C-3.35 3 -1.7 3 0 3 C0 2.01 0 1.02 0 0 Z " fill="#F5E9E1" transform="translate(1313,1240)"/>
<path d="M0 0 C-1.28299758 2.86207152 -2.530636 5.0245088 -5 7 C-5.99 7 -6.98 7 -8 7 C-8 7.66 -8 8.32 -8 9 C-8.66 9 -9.32 9 -10 9 C-8.5124715 4.98367305 -4.56813239 0 0 0 Z " fill="#FCD9C3" transform="translate(844,1188)"/>
<path d="M0 0 C6.15234375 0.5859375 6.15234375 0.5859375 8 1 C8.33 1.66 8.66 2.32 9 3 C11.30965848 4.05352843 13.6429774 5.05719096 16 6 C14.3125 6.6875 14.3125 6.6875 12 7 C9.6875 5.75 9.6875 5.75 7 4 C4.69225455 2.92785992 2.35393691 1.96926814 0 1 C0 0.67 0 0.34 0 0 Z " fill="#F9D7C2" transform="translate(1202,1145)"/>
<path d="M0 0 C0.66 0.33 1.32 0.66 2 1 C0.56877218 2.48523642 -0.87020889 3.96300462 -2.3125 5.4375 C-3.11300781 6.26121094 -3.91351562 7.08492187 -4.73828125 7.93359375 C-7 10 -7 10 -10 11 C-8.55218207 7.55571735 -6.72305391 5.63869038 -3.875 3.25 C-3.15054688 2.63640625 -2.42609375 2.0228125 -1.6796875 1.390625 C-0.84824219 0.70226563 -0.84824219 0.70226563 0 0 Z " fill="#FE9554" transform="translate(913,1253)"/>
<path d="M0 0 C0.66 0.33 1.32 0.66 2 1 C0.71520959 2.50589388 -0.57804082 4.00457375 -1.875 5.5 C-2.95394531 6.75296875 -2.95394531 6.75296875 -4.0546875 8.03125 C-4.69664062 8.6809375 -5.33859375 9.330625 -6 10 C-6.66 10 -7.32 10 -8 10 C-6.34908222 5.70761377 -3.26245434 3.1206085 0 0 Z " fill="#FCD7C1" transform="translate(882,1493)"/>
<path d="M0 0 C4.84659077 0.59104765 8.60748167 1.97944157 13 4 C13 4.33 13 4.66 13 5 C10.36 5 7.72 5 5 5 C5 4.01 5 3.02 5 2 C3.35 2.33 1.7 2.66 0 3 C0 2.01 0 1.02 0 0 Z " fill="#F9DFCF" transform="translate(1127,1089)"/>
<path d="M0 0 C1.65 0 3.3 0 5 0 C5.33 1.32 5.66 2.64 6 4 C3.69 4.33 1.38 4.66 -1 5 C-0.67 3.35 -0.34 1.7 0 0 Z " fill="#F7EFE8" transform="translate(1111,1328)"/>
<path d="M0 0 C0.66 0.33 1.32 0.66 2 1 C0.71451591 2.33929505 -0.57858155 3.67128643 -1.875 5 C-2.59429688 5.7425 -3.31359375 6.485 -4.0546875 7.25 C-6 9 -6 9 -8 9 C-6.4169423 4.7257442 -3.49431596 2.73468206 0 0 Z " fill="#FE8D47" transform="translate(1251,1483)"/>
<path d="M0 0 C0 0.66 0 1.32 0 2 C-0.99 2 -1.98 2 -3 2 C-3.66 3.32 -4.32 4.64 -5 6 C-6.65 5.67 -8.3 5.34 -10 5 C-7.31217681 1.88778367 -4.19734673 0 0 0 Z " fill="#F9DAC7" transform="translate(1172,1283)"/>
<path d="M0 0 C2.64 0.33 5.28 0.66 8 1 C4.99382731 4.00617269 2.17618402 3.59585316 -2 4 C-1.34 3.67 -0.68 3.34 0 3 C0 2.01 0 1.02 0 0 Z " fill="#F8DAC6" transform="translate(941,1240)"/>
<path d="M0 0 C2.4294516 3.6441774 2.16179575 5.71241272 2 10 C-0.52588702 7.63707344 -1.88820837 6.33537489 -3 3 C-2.01 2.01 -1.02 1.02 0 0 Z " fill="#F9ECE6" transform="translate(837,1214)"/>
<path d="M0 0 C2.97 0.33 5.94 0.66 9 1 C9.33 1.99 9.66 2.98 10 4 C12.01508358 4.73323796 12.01508358 4.73323796 14 5 C13.01 5.495 13.01 5.495 12 6 C9.92803369 5.26821134 7.8891448 4.44100997 5.875 3.5625 C4.77929688 3.08941406 3.68359375 2.61632813 2.5546875 2.12890625 C1.71164062 1.75636719 0.86859375 1.38382813 0 1 C0 0.67 0 0.34 0 0 Z " fill="#FBCCAF" transform="translate(1112,1106)"/>
<path d="M0 0 C0.66 0 1.32 0 2 0 C2 0.66 2 1.32 2 2 C1.34 2 0.68 2 0 2 C0 1.34 0 0.68 0 0 Z M-5 1 C-3.02 1.66 -1.04 2.32 1 3 C1 3.66 1 4.32 1 5 C2.32 5.33 3.64 5.66 5 6 C4.01 6.495 4.01 6.495 3 7 C-3.70588235 3.58823529 -3.70588235 3.58823529 -5 1 Z " fill="#FAD2BA" transform="translate(892,1593)"/>
<path d="M0 0 C0.8125 1.6875 0.8125 1.6875 1 4 C-1.3125 6.75 -1.3125 6.75 -4 9 C-4.66 9 -5.32 9 -6 9 C-4.68775452 5.06326356 -3.08089673 2.77280706 0 0 Z " fill="#FADECD" transform="translate(864,1319)"/>
<path d="M0 0 C3.3 0.33 6.6 0.66 10 1 C10 1.99 10 2.98 10 4 C5.38308839 3.47535095 3.90012114 2.92509086 0 0 Z " fill="#FAD5BE" transform="translate(1022,1308)"/>
<path d="M0 0 C1.32 0.66 2.64 1.32 4 2 C2.5437455 2.67119549 1.08492133 3.33681807 -0.375 4 C-1.59316406 4.556875 -1.59316406 4.556875 -2.8359375 5.125 C-5 6 -5 6 -7 6 C-7 5.01 -7 4.02 -7 3 C-3.535 2.505 -3.535 2.505 0 2 C0 1.34 0 0.68 0 0 Z " fill="#F4E6DE" transform="translate(1287,1253)"/>
<path d="M0 0 C0.66 0.33 1.32 0.66 2 1 C0.35 2.98 -1.3 4.96 -3 7 C-2.67 7.66 -2.34 8.32 -2 9 C-3.32 8.34 -4.64 7.68 -6 7 C-4.60667426 3.63279613 -3.0210714 2.0140476 0 0 Z " fill="#FCD8C3" transform="translate(1141,1474)"/>
<path d="M0 0 C-8.261959 4.40774487 -8.261959 4.40774487 -13 5 C-12.67 4.34 -12.34 3.68 -12 3 C-9.4375 2.375 -9.4375 2.375 -7 2 C-7 1.34 -7 0.68 -7 0 C-2.25 -1.125 -2.25 -1.125 0 0 Z " fill="#FCBE98" transform="translate(942,1168)"/>
<path d="M0 0 C0.66 0 1.32 0 2 0 C0.55746343 3.36591866 -1.33264727 5.51047079 -4 8 C-4.66 7.67 -5.32 7.34 -6 7 C-5.04882866 5.8274869 -4.08882991 4.66212985 -3.125 3.5 C-2.59132813 2.8503125 -2.05765625 2.200625 -1.5078125 1.53125 C-0.76144531 0.77328125 -0.76144531 0.77328125 0 0 Z " fill="#FD914E" transform="translate(897,1509)"/>
<path d="M0 0 C-0.556875 0.268125 -1.11375 0.53625 -1.6875 0.8125 C-4.08933398 2.00699665 -4.08933398 2.00699665 -6.625 3.625 C-9 5 -9 5 -11 5 C-10.1875 3.0625 -10.1875 3.0625 -9 1 C-5.8035914 -0.06546953 -3.34252724 -0.07427838 0 0 Z " fill="#FBEADE" transform="translate(1262,1478)"/>
<path d="M0 0 C1.32 0.33 2.64 0.66 4 1 C1.36 2.65 -1.28 4.3 -4 6 C-4 4.68 -4 3.36 -4 2 C-2.68 2 -1.36 2 0 2 C0 1.34 0 0.68 0 0 Z " fill="#F7E7DD" transform="translate(1135,1441)"/>
<path d="M0 0 C1.99097846 2.98646769 2.94124926 5.59687262 4 9 C1.525 8.01 1.525 8.01 -1 7 C-0.67 4.69 -0.34 2.38 0 0 Z " fill="#FBD9C5" transform="translate(960,1389)"/>
<path d="M0 0 C-0.33 1.32 -0.66 2.64 -1 4 C-3.31 4 -5.62 4 -8 4 C-2.7826087 0 -2.7826087 0 0 0 Z " fill="#FDDAC3" transform="translate(1312,1221)"/>
<path d="M0 0 C2.31 0.33 4.62 0.66 7 1 C4.64046906 3.35953094 3.22104383 3.49141413 0 4 C0 2.68 0 1.36 0 0 Z " fill="#F8E0D0" transform="translate(896,1183)"/>
<path d="M0 0 C0.66 0.99 1.32 1.98 2 3 C0.02 5.97 0.02 5.97 -2 9 C-2.33 7.68 -2.66 6.36 -3 5 C-2.34 5 -1.68 5 -1 5 C-0.67 3.35 -0.34 1.7 0 0 Z " fill="#FDDECA" transform="translate(1221,1486)"/>
</svg>
